<svg xmlns="http://www.w3.org/2000/svg" width="177.266" height="65.99" viewBox="0 0 177.266 65.99"><g transform="translate(-57.452 207.196)"><path d="M35.153-34.43V-48.523c0-4-2.14-5.9-5.734-5.9a8.277,8.277,0,0,0-6.7,3.554c-.727-2.221-2.544-3.554-5.411-3.554a8.531,8.531,0,0,0-6.38,3.029v-2.544H5.8v19.5h5.128V-47.554a5.234,5.234,0,0,1,4.038-2.3c2.1,0,2.907,1.292,2.907,3.109V-34.43h5.169V-47.594a5.178,5.178,0,0,1,4.038-2.261c2.1,0,2.907,1.292,2.907,3.109V-34.43Zm15.789,0c8.44,0,14.295-5.33,14.295-13.447S59.382-61.364,50.942-61.364H40.322V-34.43Zm0-5.048H46.056V-56.316h4.886c5.532,0,8.44,3.675,8.44,8.44A8.062,8.062,0,0,1,50.942-39.477Zm27.3,5.532A9.9,9.9,0,0,0,88.577-44.2,9.889,9.889,0,0,0,78.24-54.418,9.878,9.878,0,0,0,67.942-44.2,9.888,9.888,0,0,0,78.24-33.945Zm0-4.563c-3.19,0-4.967-2.625-4.967-5.694,0-3.029,1.777-5.653,4.967-5.653s5.007,2.625,5.007,5.653C83.247-41.133,81.43-38.508,78.24-38.508Zm23.219,4.563c4,0,6.421-1.736,7.713-3.554l-3.352-3.109a4.922,4.922,0,0,1-4.119,2.1c-3.109,0-5.29-2.3-5.29-5.694s2.181-5.653,5.29-5.653a4.73,4.73,0,0,1,4.119,2.1l3.352-3.15c-1.292-1.777-3.715-3.513-7.713-3.513-6.017,0-10.338,4.24-10.338,10.216A9.9,9.9,0,0,0,101.459-33.945Z" transform="translate(125.546 -129.227)" fill="#414042"/><path d="M123.544-144.643h4.415v3.8h3.709v4.415h-3.709v3.444h-4.415v-3.444H120.1v-4.415h3.444Z" transform="translate(-35.15 -35.097)" fill="#ff632f"/><path d="M142.452-159.713c-.029-.022,18.653-13.878,18.952-36.71-.3-.149-1.172-.589-9.793.717,0-.157-6.322-5.434-8.725-5.747-.052-.052,7.945-3.944,27.548-3.944.265.177,3.267,31.413-20.012,50.365C150.292-155.19,143.83-157.685,142.452-159.713Z" transform="translate(-47.691 -1.009)" fill="#9e9f9e"/><path d="M170.7-200.717c.029.022-18.653,13.878-18.952,36.71.3.149,1.172.589,9.793-.717,0,.157,6.322,5.434,8.725,5.747.052.052-7.945,3.944-27.548,3.944-.265-.177-3.267-31.413,20.012-50.365C162.857-205.239,169.32-202.744,170.7-200.717Z" transform="translate(-85 13.036)" fill="#9e9f9e"/><path d="M28.245,4.68C28.274,4.7,9.592,18.558,9.294,41.39c.3.149,1.172.589,9.793-.717,0,.157,6.322,5.434,8.725,5.747.052.052-7.945,3.944-27.548,3.944C0,50.188-3,18.952,20.276,0,20.405.158,26.868,2.653,28.245,4.68Z" transform="translate(108.851 -206.317) rotate(91)" fill="#47b462"/><path d="M28.245,4.68C28.274,4.7,9.592,18.558,9.294,41.39c.3.149,1.172.589,9.793-.717,0,.157,6.322,5.434,8.725,5.747.052.052-7.945,3.944-27.548,3.944C0,50.188-3,18.952,20.276,0,20.405.158,26.868,2.653,28.245,4.68Z" transform="matrix(0.017, -1, 1, 0.017, 71.169, -142.086)" fill="#47b462"/></g></svg>