<svg xmlns="http://www.w3.org/2000/svg" width="392.987" height="393" viewBox="0 0 392.987 393"><g transform="translate(773.187 -365.238)"><g transform="translate(-773.187 365.238)"><path d="M-380.2,561.537a196.324,196.324,0,0,1-89.669,165.147v.013c-.685.44-1.382.879-2.078,1.32q-3.814,2.4-7.757,4.657c-2.658,1.514-5.369,2.963-8.1,4.347a194.939,194.939,0,0,1-47.18,16.783,196.985,196.985,0,0,1-41.5,4.434A196.185,196.185,0,0,1-729.44,685.37a195.773,195.773,0,0,1-43.747-123.431c-.111-108.523,87.777-196.59,196.3-196.7a197.733,197.733,0,0,1,21,1.089c.607.063,1.215.127,1.807.191,1.446.166,2.894.358,4.327.551a195.168,195.168,0,0,1,32.42,7.288q4.244,1.351,8.383,2.858c1.266.478,2.52.954,3.773,1.43l.078.039A196.57,196.57,0,0,1-380.2,561.537Z" transform="translate(773.187 -365.238)" fill="#bcdec4"/><g transform="translate(43.747 20.205)"><path d="M-489.284,455.1a75.577,75.577,0,0,1-7.181,26.954,2.469,2.469,0,0,1-.389,2.173c-1.007,1.511-2.058,3.008-3.123,4.49a93.02,93.02,0,0,1-15.341,19.6,2.652,2.652,0,0,1-2.375.777c-1.065.993-2.13,1.972-3.209,2.921-16.406,14.391-36.567,24.45-58.484,26.378a85.153,85.153,0,0,1-37.819-5.181c.317,3.094.662,6.174.964,9.253.835,8.519,1.194,17.8-3.612,24.882a21.486,21.486,0,0,1-7.167,6.533,36.667,36.667,0,0,1-14.448,4.461,56.381,56.381,0,0,1-7.311.3,52.47,52.47,0,0,1-9.483-1.079c-.633-.13-1.266-.273-1.885-.417-5.353-1.31-10.664-3.569-14.405-7.627a21.753,21.753,0,0,1-4.994-18.478,27.619,27.619,0,0,1,10.39-16.434A31.177,31.177,0,0,1-692.9,510.235a35.966,35.966,0,0,1,.907-15.787,55.028,55.028,0,0,1,4.274-10.908,45.933,45.933,0,0,1,9.886-13.3c6.058-5.4,13.8-8.419,21.485-10.995s15.557-4.864,22.479-9.066a34.336,34.336,0,0,0,10.735-10.059c.849-2.1,1.684-4.2,2.533-6.274,3.914-9.469,8.836-18.132,15.974-25.587,12.362-12.865,29.487-21.212,47.375-22.162,17.4-.921,34.8,5.8,47.662,17.427C-495.1,416.637-487.931,435.676-489.284,455.1Z" transform="translate(764.474 -376.32)" fill="#012309"/><path d="M-519.825,522.9c.453.426.918.995.764,1.587a1,1,0,0,1-.439.609c-8.292-1.7-16.61-3.354-25.043-3.914a66.388,66.388,0,0,0-24.893,2.6,164.212,164.212,0,0,1,15.513-7.621l.389.889a127.9,127.9,0,0,1,16.787.164C-530.7,517.684-524.271,518.775-519.825,522.9Z" transform="translate(818.903 -319.177)" fill="#ff9e10"/><path d="M-531.35,538.434q-10.42,1.639-20.851,3.275l.052.324a205.982,205.982,0,0,1,33.978,4.006,7.744,7.744,0,0,1-2.93,1.384c-5.319,1.258-31.05,6.631-49.136,10.691-5.719,1.272-10.677,2.426-13.982,3.268a95.754,95.754,0,0,0-14.858-20.271,24.864,24.864,0,0,0-3.592-3.212A78.685,78.685,0,0,1-564.8,507.489c.452-.168.9-.337,1.369-.505h.013a32.294,32.294,0,0,1,8.973-1.959,20.788,20.788,0,0,1,2.841.062c.542.037,1.163.18,1.37.669a1.315,1.315,0,0,1,.014.8,8.411,8.411,0,0,1-2.747,4c-2.386,2.288-4.89,4.461-7.38,6.62q-4.76,4.132-9.521,8.249l.039.052a204.329,204.329,0,0,1,44.675-29.7,4.011,4.011,0,0,1-.283.724c-1.108,2.235-3.121,3.851-5.083,5.389q-8.5,6.653-17.122,13.124-6.58,4.967-13.238,9.815l.181.4a156.272,156.272,0,0,1,38.546-11.92,52.518,52.518,0,0,1,10.226-.967c.246.013.555.065.62.309v.026l.337-.013a3.642,3.642,0,0,1-1.315,2.726,9.8,9.8,0,0,1-3.923,1.684,166.3,166.3,0,0,0-23.12,8.017,164.2,164.2,0,0,0-15.513,7.621,66.388,66.388,0,0,1,24.893-2.6c8.433.56,16.751,2.218,25.043,3.914a3.1,3.1,0,0,1-1.3.44Q-518.779,536.452-531.35,538.434Z" transform="translate(804.312 -328.121)" fill="#ffc33e"/><path d="M-523.722,508.865l-.337.013v-.026c-.065-.245-.374-.3-.62-.309a52.518,52.518,0,0,0-10.226.967,156.272,156.272,0,0,0-38.546,11.92l-.181-.4q6.657-4.848,13.238-9.815l.388.517a135.312,135.312,0,0,1,18.924-6.089c5.28-1.284,11.258-2.128,15.781.875a3.9,3.9,0,0,1,1.279,1.239A2.43,2.43,0,0,1-523.722,508.865Z" transform="translate(817.061 -324.309)" fill="#ff9e10"/><path d="M-532.5,529.979c.583,1.135-.023,2.221-1.069,3.048a205.976,205.976,0,0,0-33.978-4.006l-.052-.324q10.42-1.636,20.851-3.275a48.512,48.512,0,0,1,12.167,3A3.877,3.877,0,0,1-532.5,529.979Z" transform="translate(819.71 -315.109)" fill="#ff9e10"/><path d="M-558.366,430.156h.013a17.262,17.262,0,0,1,4.755,3.326,48.305,48.305,0,0,1,7.577,8.8h.452a49.184,49.184,0,0,0-1.9-13.687.324.324,0,0,1,.091.052,23.627,23.627,0,0,1,8.327,10.464,35.129,35.129,0,0,1,2.566,9.347,33.874,33.874,0,0,1-.194,11.131,43.975,43.975,0,0,1-4.714,11.989,124.181,124.181,0,0,1-18.35,25.806c-5.055,5.494-10.746,10.691-13.785,17.512v.013c-.3-.091-.581-.18-.879-.271q7.477-17.886,14-36.184c.374-.633.722-1.266,1.058-1.913-.091-.076-.181-.167-.272-.258a68.192,68.192,0,0,1-14.637-18.425c-1.035-1.9-1.992-4-1.659-6.119a3.669,3.669,0,0,1,1.741-2.7,4.174,4.174,0,0,1,4,.448,13.388,13.388,0,0,1,1.409.928,52.473,52.473,0,0,1,12.513,13.211l.117-.013a44,44,0,0,0-13.093-23.761l.155-.154c1.445-1.268,3.732-.6,5.411.342.167.091.335.193.491.3,4.677,2.759,8.285,7,11.787,11.172l.363-.066a43.75,43.75,0,0,0-10.017-21.8A6.088,6.088,0,0,1-558.366,430.156Z" transform="translate(816.027 -357.624)" fill="#ffc33e"/><path d="M-535.7,494.346a1.872,1.872,0,0,1,.532,2.182,204.329,204.329,0,0,0-44.675,29.7l-.039-.052q4.76-4.132,9.521-8.249c2.49-2.159,4.994-4.332,7.38-6.62a8.411,8.411,0,0,0,2.747-4,1.315,1.315,0,0,0-.014-.8c-.207-.489-.828-.632-1.37-.669a20.788,20.788,0,0,0-2.841-.062c3.678-2.341,7.575-4.4,11.422-6.378,5.073-2.6,10.39-5.228,16.085-5.284A2.416,2.416,0,0,1-535.7,494.346Z" transform="translate(814.319 -328.861)" fill="#ff9e10"/><path d="M-557.25,427.324a11.709,11.709,0,0,1,4.405,1.881,49.184,49.184,0,0,1,1.9,13.687h-.452a48.305,48.305,0,0,0-7.577-8.8,17.262,17.262,0,0,0-4.755-3.326h-.013a5.3,5.3,0,0,1,4.812-3.543A6.589,6.589,0,0,1-557.25,427.324Z" transform="translate(821.404 -358.234)" fill="#ff9e10"/><path d="M-554.581,451.122l-.363.066c-3.5-4.168-7.11-8.413-11.787-11.172l.348-.581a10.558,10.558,0,0,1-1.351-7.165,4.242,4.242,0,0,1,.619-1.718,3.086,3.086,0,0,1,2.517-1.229A43.75,43.75,0,0,1-554.581,451.122Z" transform="translate(819.586 -357.305)" fill="#ff9e10"/><path d="M-540.7,632.038a2.86,2.86,0,0,1,.738,2.272,2.75,2.75,0,0,1-1.56,1.5,178.2,178.2,0,0,1-50.253,18.142,7.019,7.019,0,0,1-4.313-.073c-1.681-.773-2.482-2.684-3.117-4.427a234.289,234.289,0,0,1-9.9-36.456,30.848,30.848,0,0,0,8.8-10.2l.117.065c10.948-2.052,18.905-11.757,23.492-21.913a90.405,90.405,0,0,0,6.4-21.248A183.915,183.915,0,0,0-540.7,632.038Z" transform="translate(801.483 -300.057)" fill="#2aacf4"/><path d="M-572.2,440.061a8.965,8.965,0,0,1,.373-1.835,4.576,4.576,0,0,1,.967-1.809,44,44,0,0,1,13.093,23.761l-.117.013A52.473,52.473,0,0,0-570.4,446.98a13.388,13.388,0,0,0-1.409-.928l.659-.052A10.381,10.381,0,0,1-572.2,440.061Z" transform="translate(817.658 -354.19)" fill="#ff9e10"/><path d="M-564.376,461.733c.091.091.181.181.272.258-.335.646-.684,1.279-1.058,1.913C-564.891,463.179-564.634,462.457-564.376,461.733Z" transform="translate(820.78 -343.074)" fill="#ffc33e"/><path d="M-539.917,493.067a2.119,2.119,0,0,1-.792.59,125.611,125.611,0,0,1-21.1,23.1c-2.13,1.842-4.317,3.583-6.562,5.253a37,37,0,0,1-9.512,5.483,27.3,27.3,0,0,1-9.325,1.367c-.792-.014-1.583-.043-2.346-.13a36.331,36.331,0,0,1-9.642-2.1,37.4,37.4,0,0,1-15.413-10.52,37.508,37.508,0,0,1-8.807-28.134l-.115-.014a18.486,18.486,0,0,1-1.223,4.145c-2.159,6.015-2.921,12.4-3.583,18.766a55.953,55.953,0,0,1-5.353-16.262c-1.381-7.627-1.727-15.4-2.5-23.126a34.708,34.708,0,0,1,9.095-10.16,26.489,26.489,0,0,1-2.864-14.42,19.18,19.18,0,0,1,4.13-10.736,12.4,12.4,0,0,1,10.289-4.533,9.6,9.6,0,0,1,7.138,4.432,76.016,76.016,0,0,0,47.634-17.456,3.078,3.078,0,0,1,1.238-.633C-558.7,417.242-532.506,483.641-539.917,493.067Z" transform="translate(789.592 -362.29)" fill="#ffc33e"/><path d="M-496.225,503.083c-.758,3.061-3.937,13.719-5.687,18.911-.465.168-.917.337-1.369.505a78.681,78.681,0,0,0-37.869,30.411,24.971,24.971,0,0,1,3.593,3.212A95.756,95.756,0,0,1-522.7,576.392c3.306-.842,8.263-2,13.982-3.268-.507,9.905-1.141,19.926-2.9,29.652a90.491,90.491,0,0,1-6.4,21.248,52.37,52.37,0,0,1-4.925,8.657,36.25,36.25,0,0,1-2.282,2.959c-4.309,5.132-9.766,9.075-16.286,10.3l-.117-.063a30.842,30.842,0,0,1-8.8,10.2,22,22,0,0,1-9.784,4.077,14.013,14.013,0,0,1,7.193,13.255,14.009,14.009,0,0,1-9.389,11.8c3.526.436,7.092,2.343,8.555,5.6s-.019,7.787-3.439,8.784a51.731,51.731,0,0,1,8.948,11.91,196.982,196.982,0,0,1-41.5,4.434,196,196,0,0,1-143.422-61.957q-4.963-5.276-9.533-10.911c.8-1.189,18.331-43.033,18.551-43.588,5.5-13.961,15.713-29.8,11.6-44.436-5.618-20-9.991-53.883,4.782-71.342,13.45-15.9,23.7-15.322,28.97-16,3.667-.472,7.562-2.5,8.485-6.083-3.732,13.51.935,27.842,12.841,35.61a29.506,29.506,0,0,0,10.078,4.214,27.614,27.614,0,0,0-10.379,16.423,21.734,21.734,0,0,0,4.991,18.486c3.736,4.051,9.045,6.318,14.405,7.617.62.154,1.253.3,1.887.424a51.9,51.9,0,0,0,6.3.9c1.059.1,2.118.154,3.177.178a55.34,55.34,0,0,0,7.308-.305,36.551,36.551,0,0,0,14.445-4.457,43.8,43.8,0,0,0,13.1,7.644,44.34,44.34,0,0,0,25.014,1.846q.7-.156,1.394-.35c5.176-1.361,10.184-3.91,13.266-8.239,3.121-4.382,3.851-10.051,3.252-15.448-.066-.58-.144-1.161-.235-1.73a9.067,9.067,0,0,0,8.44-5.355,9.06,9.06,0,0,0-1.651-9.489c.776.076,1.563.115,2.351.127a27.71,27.71,0,0,0,8.676-1.159c.219-.065.426-.13.645-.207a23.14,23.14,0,0,0,3.008-1.307,42.681,42.681,0,0,0,5.807-3.674l.7-.5c.813-.594,1.612-1.2,2.4-1.836,1.42-1.1,2.8-2.236,4.167-3.414a65.274,65.274,0,0,1,13.832,2.543c.3.089.581.18.879.271,1.1.347,2.183.721,3.268,1.12a1.388,1.388,0,0,1,.8.554A1.328,1.328,0,0,1-496.225,503.083Z" transform="translate(742.788 -343.129)" fill="#47b462"/><path d="M-560.131,489.161c.3.091.581.18.879.271,1.1.347,2.183.721,3.268,1.12a1.38,1.38,0,0,1,.8.555,1.317,1.317,0,0,1,0,.993c-.758,3.062-3.937,13.719-5.676,18.911h-.013c-.465.168-.917.337-1.369.505a78.684,78.684,0,0,0-37.868,30.411,10.1,10.1,0,0,0-3.76-1.727,243.687,243.687,0,0,0-2.041-25.282l-2.363.247c-.065-.58-.143-1.161-.233-1.73a9.063,9.063,0,0,0,8.439-5.355,9.059,9.059,0,0,0-1.649-9.489c.776.076,1.563.115,2.35.127a27.418,27.418,0,0,0,9.322-1.366,37.02,37.02,0,0,0,9.511-5.484q3.37-2.5,6.568-5.25A65.267,65.267,0,0,1-560.131,489.161Z" transform="translate(801.749 -332.148)" fill="#47b462"/><path d="M-584.5,496.882a126.06,126.06,0,0,0,27.832-33.641q-6.528,18.273-14,36.184A65.267,65.267,0,0,0-584.5,496.882Z" transform="translate(812.288 -342.412)" fill="#ff9e10"/><path d="M-570.092,539.1c-.506,9.905-1.143,19.927-2.9,29.652-1.335,7.311-3.353,22.676-6.431,29.458-4.588,10.156-12.509,11.651-23.457,13.7l-.116-.065a35.545,35.545,0,0,0,2.705-6.344c2.729-8.706,2.538-17.99,1.973-27.158q9.291-6.711,18.117-14.017c1.3-1.086,2.684-2.314,3.031-3.993a7.454,7.454,0,0,0-.6-3.86,95.773,95.773,0,0,0-6.3-14.109C-580.769,541.524-575.811,540.37-570.092,539.1Z" transform="translate(804.167 -309.105)" fill="#12772b"/><path d="M-596.478,473.718a.538.538,0,0,1,.076-.071c.259-.247.525-.471.8-.7a2.83,2.83,0,0,0,.235-.188,9.618,9.618,0,0,1,6.261-2.137c3.393.15,6.695,2.763,7.059,6.141.271,2.364-.832,4.657-2.183,6.624a25.035,25.035,0,0,1-8.478,7.721,10.84,10.84,0,0,0,.357-5.315,10.026,10.026,0,0,0-1.445-3.175,24.1,24.1,0,0,0-3.1-3.923,4.788,4.788,0,0,0-2.556-1.6l-.03-.02A20.825,20.825,0,0,1-596.478,473.718Z" transform="translate(805.714 -339.173)" fill="#252849"/><path d="M-592.713,480.65a10.026,10.026,0,0,1,1.445,3.175,10.841,10.841,0,0,1-.357,5.315c-.246.138-.481.273-.728.4a7.979,7.979,0,0,1-5.289,1.1,5.914,5.914,0,0,1-4.145-4.71,11.41,11.41,0,0,1,.95-6.45,21.3,21.3,0,0,1,2.442-4.363l.03.02a4.787,4.787,0,0,1,2.556,1.6A24.1,24.1,0,0,1-592.713,480.65Z" transform="translate(804.635 -337.2)" fill="#ff7900"/><path d="M-623.461,494.535a35.351,35.351,0,0,0,5.3,7.574c5.985,6.477,15.274,10.367,23.821,8.214l.013-.026a36.812,36.812,0,0,0,9.635,2.108,9.059,9.059,0,0,1,1.649,9.489,9.063,9.063,0,0,1-8.439,5.355c.091.568.168,1.15.233,1.73.6,5.4-.13,11.068-3.251,15.449-3.352,4.716-9.006,7.318-14.66,8.589a44.732,44.732,0,0,1-38.117-9.491A21.565,21.565,0,0,0-640.1,537c4.809-7.082,4.453-16.367,3.616-24.887-1.2-12.15-3.021-24.378-1.574-36.5a51.855,51.855,0,0,1,6.733-20.449c.783,7.722,1.127,15.495,2.5,23.125A55.943,55.943,0,0,0-623.461,494.535Z" transform="translate(784.726 -345.961)" fill="#2aacf4"/><path d="M-601.591,505.269l-.013.026c-8.547,2.153-17.836-1.737-23.821-8.214a35.354,35.354,0,0,1-5.3-7.574c.652-6.354,1.42-12.747,3.583-18.754a18.274,18.274,0,0,0,1.209-4.146l.117.013a37.5,37.5,0,0,0,8.81,28.128A37.382,37.382,0,0,0-601.591,505.269Z" transform="translate(791.992 -340.934)" fill="#ff9e10"/><path d="M-640.52,558.785l.039.089a64.15,64.15,0,0,0-10.428,5.667,14.344,14.344,0,0,0-.794-6.2c-.868-1.924-2.858-3.5-4.936-3.185-1.885.272-3.214,1.927-4.349,3.452q-3.693,4.924-7.362,9.859c1.055-2.931-3.118-5.523-6-4.319s-4.3,4.4-5.287,7.339a80,80,0,0,0-2.931,11.484,97.828,97.828,0,0,1,19.613-63.851,53.144,53.144,0,0,0,9.479,1.075A217.421,217.421,0,0,1-640.52,558.785Z" transform="translate(769.17 -317.874)" fill="#12772b"/><path d="M-549.122,581.4q-18.935,12.06-38.893,22.4-9.971,5.155-20.167,9.856a167.7,167.7,0,0,1-20.465,8.354c-6.984,2.159-14.463,3.415-21.726,2a38.173,38.173,0,0,1-17.558-9.03c-5.43-4.726-9.779-10.518-13.738-16.492-4.131-6.236-8.031-12.635-11.852-19.063q-13.023-21.9-24.135-44.866c-.724-1.5-2.95-.186-2.228,1.305q10.171,21,21.95,41.165,5.861,10.022,12.113,19.812c3.946,6.151,8.141,12.232,13.33,17.414a45.7,45.7,0,0,0,16.442,10.862c6.725,2.444,13.972,2.5,20.94,1.181,7.315-1.383,14.276-4.192,21.06-7.181q10.54-4.643,20.848-9.8a498.379,498.379,0,0,0,45.384-25.693C-546.42,582.737-547.715,580.5-549.122,581.4Z" transform="translate(752.782 -311.387)" fill="#12772b"/><path d="M-586.76,523.967a317.857,317.857,0,0,0-65.917,30.874c-1.412.871-.114,3.1,1.307,2.228a314.874,314.874,0,0,1,65.3-30.612C-584.5,525.932-585.177,523.438-586.76,523.967Z" transform="translate(782.087 -315.78)" fill="#12772b"/><path d="M-599.6,528.171q-5.919,3.37-11.536,7.231a1.324,1.324,0,0,0-.462,1.767,1.3,1.3,0,0,0,1.767.462q5.612-3.86,11.537-7.231A1.293,1.293,0,0,0-599.6,528.171Z" transform="translate(800.316 -313.981)" fill="#12772b"/><path d="M-597.289,533.4a79.593,79.593,0,0,1-10.23,8.095,1.322,1.322,0,0,0-.462,1.767,1.306,1.306,0,0,0,1.767.462,83.636,83.636,0,0,0,10.753-8.5C-594.244,534.085-596.076,532.263-597.289,533.4Z" transform="translate(801.903 -311.765)" fill="#12772b"/><path d="M-592.046,539.77a51.061,51.061,0,0,1-9.7,7.554,1.292,1.292,0,0,0,1.307,2.228,53.889,53.889,0,0,0,10.216-7.957A1.292,1.292,0,0,0-592.046,539.77Z" transform="translate(804.448 -308.975)" fill="#12772b"/><path d="M-586.873,545.353a1.328,1.328,0,0,0-1.766.465c-.253.341-.423.561-.744.95q-.423.512-.868,1-.915,1.008-1.924,1.925a25.729,25.729,0,0,1-4.212,3.127,1.309,1.309,0,0,0-.462,1.767,1.314,1.314,0,0,0,1.767.462,30.291,30.291,0,0,0,8.673-7.934A1.294,1.294,0,0,0-586.873,545.353Z" transform="translate(806.789 -306.432)" fill="#12772b"/><path d="M-582.318,552.472a1.32,1.32,0,0,0-1.826,0l-8.388,6.925a1.3,1.3,0,0,0,0,1.826,1.32,1.32,0,0,0,1.826,0l8.39-6.925A1.3,1.3,0,0,0-582.318,552.472Z" transform="translate(808.598 -303.394)" fill="#12772b"/><path d="M-695.474,489.762a4.405,4.405,0,0,0-1.366-2.559,24.771,24.771,0,0,0-2.38-2.349,27.074,27.074,0,0,0-5.546-3.707c-1.482-.744-2.789,1.485-1.3,2.232a24.846,24.846,0,0,1,4.25,2.662,24.192,24.192,0,0,1,2,1.774,7.77,7.77,0,0,1,1.617,1.8c.157.328.2.325-.157.545a2.921,2.921,0,0,1-1.117.321,9.2,9.2,0,0,1-2.343-.1,15.36,15.36,0,0,0-4.968-.157,1.3,1.3,0,0,0-.567,2.159,39.186,39.186,0,0,1,5.175,5.04c.412.485.813.979,1.2,1.487.153.2.289.435.453.629a16.335,16.335,0,0,1-2.474-.685,50.128,50.128,0,0,1-13.1-7.174c-1.327-1-2.612,1.24-1.3,2.232a51.658,51.658,0,0,0,8.065,5.014q2.042,1.017,4.166,1.856a19.721,19.721,0,0,0,4.031,1.351,2.909,2.909,0,0,0,3.1-1.081c.84-1.389-.2-2.78-1.026-3.86a39.886,39.886,0,0,0-3.973-4.414,17,17,0,0,0,3.26.309C-697.87,492.993-695.343,492.07-695.474,489.762Z" transform="translate(753.697 -334.615)" fill="#12772b"/><path d="M-610.586,597.937q-13.824,1.109-27.553,3.127c-.882.128-1.1,1.24-.77,1.9.833,1.649,2.785,1.99,4.406,2.436q3.253.894,6.541,1.665t6.6,1.417a28.887,28.887,0,0,1,4.281.957c-3.557,1.8-8.291,2.258-10.407,5.882-1.448,2.477,1.832,3.828,3.672,4.365a26.312,26.312,0,0,0,8.715.56c1.655-.083,1.662-2.667,0-2.583a28,28,0,0,1-6.941-.2,7.29,7.29,0,0,1-3.033-1.066l.049-.065a7.261,7.261,0,0,1,.512-.522,7.389,7.389,0,0,1,1.033-.786c3.123-2,6.906-2.472,9.886-4.782.731-.567.314-1.592-.263-2.028a11.708,11.708,0,0,0-5.067-1.89c-2.115-.4-4.225-.82-6.326-1.288q-3.039-.676-6.057-1.458c-.714-.186-1.426-.38-2.137-.574q11.4-1.552,22.864-2.481C-608.936,600.387-608.925,597.8-610.586,597.937Z" transform="translate(788.335 -283.272)" fill="#12772b"/><path d="M-713.562,582.4A49.64,49.64,0,0,0-728.4,570.983c-1.472-.767-2.777,1.462-1.3,2.232a51.311,51.311,0,0,1,12.051,8.662,18.9,18.9,0,0,1,2.432,2.569,1.761,1.761,0,0,1,.345.635c.02.278.16.089-.036.2a4.876,4.876,0,0,1-1.859.053,32.555,32.555,0,0,1-8.265-1.209c-1.193-.331-2.251,1.288-1.255,2.159a54.989,54.989,0,0,1,4.96,4.409c.364.406,1.249,1.443.465,1.826-.642.312-1.676-.092-2.294-.289a29.172,29.172,0,0,1-10.661-6.21c-1.228-1.115-3.058.707-1.823,1.828a32.3,32.3,0,0,0,6.8,4.781c2.18,1.135,4.894,2.526,7.408,2.547a3.2,3.2,0,0,0,3.062-4.7,9.26,9.26,0,0,0-2.442-2.823l-.021-.02a29.518,29.518,0,0,0,5.489.278c1.354-.066,2.717-.553,3.048-2.026A4.229,4.229,0,0,0-713.562,582.4Z" transform="translate(745.745 -295.174)" fill="#12772b"/><path d="M-591.54,443.125a1.322,1.322,0,0,0-1.589-.9,1.305,1.305,0,0,0-.9,1.59,43.287,43.287,0,0,1,2.078,9.63q-4.5-.7-9-1.406a1.333,1.333,0,0,0-1.587.9,1.3,1.3,0,0,0,.9,1.587l10.776,1.685a1.309,1.309,0,0,0,1.633-1.246A45.718,45.718,0,0,0-591.54,443.125Z" transform="translate(804.353 -351.66)" fill="#090e3f"/><path d="M-568.385,463.07a29.089,29.089,0,0,1-2.546-2.254q-.592-.589-1.148-1.213c-.095-.107-.187-.214-.281-.322l.13-.079,1.22-.757a1.31,1.31,0,0,0,.46-1.767,1.311,1.311,0,0,0-1.767-.461l-1.275.79a8.25,8.25,0,0,0-1.356.9,1.577,1.577,0,0,0-.2,2.036,13.36,13.36,0,0,0,1,1.223,29.08,29.08,0,0,0,3.93,3.736,1.325,1.325,0,0,0,1.826,0A1.3,1.3,0,0,0-568.385,463.07Z" transform="translate(816.273 -345.574)" fill="#090e3f"/><path d="M-559.786,470.552a50.222,50.222,0,0,1-8.7-12.172,48.277,48.277,0,0,1-2.852-6.877c-.715-2.187-1.485-4.76.045-6.768,1.006-1.323-1.236-2.608-2.232-1.3-1.56,2.048-1.4,4.719-.8,7.092a43.9,43.9,0,0,0,3,7.926,52.438,52.438,0,0,0,9.708,13.927C-560.452,473.577-558.629,471.747-559.786,470.552Z" transform="translate(816.57 -351.348)" fill="#ff9e10"/><path d="M-584.126,435.82a37.54,37.54,0,0,0-13.019-2.426c-2.088,0-4.041,1.121-4.316,3.375-.23,1.885,1.269,4.313,3.375,4.317a31.6,31.6,0,0,1,11.074,1.925C-582.351,444.743-579.433,437.563-584.126,435.82Z" transform="translate(804.832 -355.517)" fill="#090e3f"/><path d="M-575.036,456.4c-5.12-2.262-12.3-3.693-17.95-1.262-2.706,1.164-3.12,3.126-2.58,5.29a9.216,9.216,0,0,0,1.289,1.9c2.626,3.306,7.574,2.268,11.589,2.972,4.1.718,5.818,4.248,9.882,4.756a5.143,5.143,0,0,0,4.237-1.743C-564.455,463.571-570.552,458.384-575.036,456.4Z" transform="translate(807.34 -346.525)" fill="#e23d69" opacity="0.31"/><path d="M-604.078,442.749c.216-.8-1.055-1.035-1.271-.236-.639,2.362-1.382,5.763-4.124,6.533a2.679,2.679,0,0,1-2.951-.873,4.018,4.018,0,0,1-.236-3.362c.806-2.743,3.11-4.073,5.188-5.766,1.725-1.409,3.261-3.36,3-5.716-.092-.825-1.38-.731-1.288.1.276,2.465-1.874,4.156-3.637,5.47-1.931,1.436-3.644,2.962-4.419,5.319-.576,1.751-.609,3.989.881,5.315a4.33,4.33,0,0,0,5.255.063C-605.429,448.026-604.754,445.246-604.078,442.749Z" transform="translate(799.254 -355.797)" fill="#fff"/><path d="M-617.805,457.216c-.669,1.219-1.426,2.657-2.818,3.16a1.847,1.847,0,0,1-2.646-1.564,3.313,3.313,0,0,1,2.009-3.035c1.022-.561,2.5-.663,3.045-1.848.442-.967-.095-1.885-.429-2.785-.527-1.422.384-2.514,1.563-3.235,2-1.219,5.15-2.287,4.713-5.251-.121-.817-1.409-.727-1.288.1.4,2.691-3.59,3.412-5.112,4.8a3.848,3.848,0,0,0-1.363,2.668,3.692,3.692,0,0,0,.305,1.438,4.284,4.284,0,0,1,.489,1.389c0,.656-.681.829-1.2,1.013a9.305,9.305,0,0,0-1.554.7,5,5,0,0,0-2.213,2.419c-.675,1.759.007,4.045,1.982,4.547,2.746.7,4.547-1.9,5.677-3.955C-616.244,457.051-617.407,456.49-617.805,457.216Z" transform="translate(794.701 -351.699)" fill="#fff"/><path d="M-609.228,450.8a.653.653,0,0,0-.911.058c-.21.253-.423.5-.651.741a3.768,3.768,0,0,1-.63.56,2.119,2.119,0,0,1-.738.373l-.078.02h0c-.063.009-.127.017-.191.022s-.111,0-.167,0c.125,0-.063-.007-.109-.014a1.571,1.571,0,0,1-.164-.03c-.016,0-.1-.029-.132-.036l-.12-.05c-.056-.026-.111-.066-.167-.088h0l-.052-.039c-.04-.033-.078-.07-.118-.1l-.013-.01-.029-.039c-.016-.022-.068-.108-.083-.13s-.026-.069-.032-.086l-.013-.052,0-.02a1.3,1.3,0,0,1,.036-.394,2.18,2.18,0,0,1,.131-.343c.079-.174.168-.344.256-.514l1.233-2.415a.656.656,0,0,0-.3-.863.656.656,0,0,0-.863.3l-1.274,2.494a2.807,2.807,0,0,0-.39,2.328,2.318,2.318,0,0,0,1.589,1.305,2.856,2.856,0,0,0,2.131-.307,6.9,6.9,0,0,0,1.911-1.757A.656.656,0,0,0-609.228,450.8Z" transform="translate(798.929 -349.419)" fill="#fff"/><path d="M-591.176,501.561q-.827-4.989-1.652-9.977a1.945,1.945,0,0,0-2.385-1.351,1.993,1.993,0,0,0-1.35,2.385q.825,4.989,1.652,9.979a1.945,1.945,0,0,0,2.385,1.35A1.994,1.994,0,0,0-591.176,501.561Z" transform="translate(806.976 -330.593)" fill="#fff"/><path d="M-577.333,500.4l-6.109-9.314a1.972,1.972,0,0,0-2.651-.692,1.965,1.965,0,0,0-.692,2.651l6.109,9.314a1.97,1.97,0,0,0,2.651.692A1.964,1.964,0,0,0-577.333,500.4Z" transform="translate(811.166 -330.608)" fill="#fff"/><path d="M-573.545,484.563l-10.561-3.484a1.952,1.952,0,0,0-2.382,1.356,1.982,1.982,0,0,0,1.356,2.382l10.561,3.484a1.953,1.953,0,0,0,2.382-1.356A1.982,1.982,0,0,0-573.545,484.563Z" transform="translate(811.392 -334.614)" fill="#fff"/><path d="M-527.779,396.767a66.4,66.4,0,0,1-19.181,17.928,68.564,68.564,0,0,1-25.521,9.278c-9.914,1.569-20.238,1.74-29.706,5.384-7.48,2.878-14.653,7.883-17.863,15.482-3.257,7.712-1.618,16.253-2.921,24.31a17.544,17.544,0,0,1-4.879,10.2c-2.615,2.487-6.02,3.955-9.334,5.258-6.482,2.547-13.984,4.973-16.531,12.2-1.485,4.221-.737,8.856.5,13.035,1.389,4.677,3.5,9.1,5,13.735,3.023,9.341,4.044,19.815-.414,28.887a22.758,22.758,0,0,1-8.765,9.767,19.555,19.555,0,0,1-12.1,2.564,15.935,15.935,0,0,1-5.93-1.976.72.72,0,0,0-.725,1.243c7.456,4.255,17.114,2.277,23.254-3.395,6.823-6.3,9.318-16.026,8.629-25.047a56.886,56.886,0,0,0-3.566-15.312c-1.688-4.565-3.75-9.023-4.756-13.809-.927-4.409-.714-9.155,2.2-12.814,2.192-2.752,5.42-4.406,8.6-5.738,6.572-2.744,14.169-4.7,17.891-11.389,4.021-7.221,2.487-16.083,3.389-23.968a23.76,23.76,0,0,1,4.245-11.539,28.84,28.84,0,0,1,9.491-8.008c8.7-4.789,18.692-5.648,28.367-6.827a99.242,99.242,0,0,0,15.013-2.721,67.367,67.367,0,0,0,12.232-4.8,68.215,68.215,0,0,0,20.68-16.177q2.087-2.42,3.934-5.032C-526,396.736-527.247,396.017-527.779,396.767Z" transform="translate(771.896 -371.739)" fill="#12772b"/><path d="M-533.741,391.136c-3.192,6.731-9.47,11.3-16.344,13.805-8.38,3.055-17.443,2.956-26.223,2.375-9.053-.6-18.151-1.725-27.216-.685-7.984.915-15.59,3.619-21.7,8.947a36.288,36.288,0,0,0-11.246,18.108c-1.048,4.068-1.028,8.292-1.878,12.392a17.592,17.592,0,0,1-5.509,9.671c-5.369,4.891-12.526,7.3-18.623,11.1a57.176,57.176,0,0,0-16.652,15.339,38.717,38.717,0,0,0-7.249,20.454,32.268,32.268,0,0,0,5.526,20.1,27.416,27.416,0,0,0,3.34,3.868c.668.642,1.687-.374,1.017-1.017a28.833,28.833,0,0,1-8.4-19,36.1,36.1,0,0,1,5.2-20.888,52.393,52.393,0,0,1,15.823-16.234,90.726,90.726,0,0,1,9.505-5.453,65.621,65.621,0,0,0,9.321-5.447,20.966,20.966,0,0,0,6.529-7.416c1.882-3.844,2.064-8.151,2.569-12.324A34.927,34.927,0,0,1-626.8,419.1a35.906,35.906,0,0,1,20.474-10.63c8.77-1.512,17.719-.64,26.522.032,8.889.679,18.06,1.222,26.766-1.118,6.833-1.838,13.457-5.447,17.839-11.115a24.122,24.122,0,0,0,2.705-4.406C-532.1,391.03-533.344,390.3-533.741,391.136Z" transform="translate(767.538 -374.234)" fill="#12772b"/><path d="M-538.5,391.378a36.345,36.345,0,0,0-30.107,4.647c-.764.514-.045,1.76.727,1.242a34.932,34.932,0,0,1,29-4.5A.72.72,0,0,0-538.5,391.378Z" transform="translate(819.126 -374.586)" fill="#12772b"/><path d="M-541.1,400.718a51.871,51.871,0,0,0-22.513-5.471.72.72,0,0,0,0,1.439,50.245,50.245,0,0,1,21.786,5.274C-541,402.373-540.271,401.133-541.1,400.718Z" transform="translate(821.155 -372.267)" fill="#12772b"/><path d="M-539.177,423.186c-2.667-7.347-7.934-13.356-14.158-17.953a63.834,63.834,0,0,0-11.454-6.628c-.838-.381-1.57.859-.727,1.243A54.789,54.789,0,0,1-547.4,412.468a32.217,32.217,0,0,1,8.662,20.2,24.259,24.259,0,0,1-2.651,12.267c-.43.819.812,1.547,1.243.727C-536.506,438.735-536.54,430.447-539.177,423.186Z" transform="translate(820.461 -370.824)" fill="#12772b"/><path d="M-560.76,436.779a47.172,47.172,0,0,1-7.607-34.423c.155-.905-1.232-1.294-1.389-.381A48.631,48.631,0,0,0-562,437.506C-561.481,438.264-560.233,437.545-560.76,436.779Z" transform="translate(818.461 -369.541)" fill="#12772b"/><path d="M-527.619,392.533c-8.85-5.922-18.77-10.531-29.307-12.389a51.1,51.1,0,0,0-28.642,2.818,39.99,39.99,0,0,0-20.239,17.872c-4.95,9.394-5.873,20.141-7.634,30.434-1.62,9.468-4.162,19.548-11.017,26.675-6.074,6.312-14.575,8.961-22.939,10.636-8.636,1.731-17.525,2.554-25.876,5.494a38.589,38.589,0,0,0-11.232,5.991,33.315,33.315,0,0,0-8.594,10.361,33.337,33.337,0,0,0-2.579,25.97,34.608,34.608,0,0,0,16.762,19.672,32.583,32.583,0,0,0,5.945,2.364.721.721,0,0,0,.383-1.389,32.812,32.812,0,0,1-19.645-16.2,31.321,31.321,0,0,1-1.418-25.76,32.931,32.931,0,0,1,7.123-11.249,33.178,33.178,0,0,1,10.654-7.207c7.873-3.432,16.56-4.447,24.942-5.926,8.088-1.426,16.483-3.255,23.283-8.122,7.675-5.492,11.713-14.112,13.965-23.044,2.465-9.777,2.913-19.961,5.8-29.644a41.112,41.112,0,0,1,6.513-13.342,37.765,37.765,0,0,1,10.016-9,46.853,46.853,0,0,1,26.5-6.826c10.548.4,20.782,3.922,29.95,9.024,2.245,1.249,4.431,2.6,6.565,4.027C-527.573,394.292-526.852,393.046-527.619,392.533Z" transform="translate(762.795 -379.278)" fill="#12772b"/><path d="M-618.325,448.258c.673-.639-.345-1.655-1.019-1.017a44.715,44.715,0,0,0-12.442,21.35,45.986,45.986,0,0,0,.892,25.21c2.7,8.715,7.056,16.96,8.634,26a28.967,28.967,0,0,1-.485,13.012,25.857,25.857,0,0,1-6.359,10.842,25.6,25.6,0,0,1-27.72,5.592c-.858-.347-1.232,1.043-.383,1.389a27.053,27.053,0,0,0,25.685-3.006,27.357,27.357,0,0,0,11.206-21.36c.233-9.3-3.791-18.014-6.991-26.531a72.126,72.126,0,0,1-3.9-13.288,41.672,41.672,0,0,1-.114-12.861A43.642,43.642,0,0,1-618.325,448.258Z" transform="translate(780.155 -349.526)" fill="#242c6b"/><path d="M-604.7,496.039c-.682-.626-1.7.39-1.018,1.017,1.711,1.572,1.464,4.268.262,6.08-1.432,2.161-3.943,3.35-6.2,4.458a.731.731,0,0,0-.145,1.131,10.078,10.078,0,0,1,1.193,10.6,10.124,10.124,0,0,1-8.835,5.458.72.72,0,0,0,0,1.439,11.544,11.544,0,0,0,10.193-6.41,11.551,11.551,0,0,0-.987-11.324c2.472-1.236,5.1-2.718,6.379-5.256C-602.686,500.929-602.688,497.881-604.7,496.039Z" transform="translate(796.646 -328.097)" fill="#0894c4"/><path d="M-613.354,495.055c-.842-.366-1.576.875-.727,1.243,2.154.935,2.772,3.483,2.288,5.624-.61,2.711-2.985,4.609-5.149,6.126-2.272,1.593-4.717,3.042-6.493,5.222a9.6,9.6,0,0,0-1.807,3.285,13.939,13.939,0,0,0-.328,4.622c.079,1.772.222,3.717-.632,5.342a3.054,3.054,0,0,1-3.723,1.664c-.862-.341-1.235,1.051-.383,1.389,2.907,1.151,5.47-1.548,6.011-4.195.7-3.439-.711-7.077,1.275-10.239,3.238-5.152,11.507-6.567,12.683-13.165C-609.869,499.334-610.711,496.205-613.354,495.055Z" transform="translate(791.964 -328.472)" fill="#0894c4"/><path d="M-629.363,514.2a.727.727,0,0,0-1.017,0,14.435,14.435,0,0,1-4.512,3.25.728.728,0,0,0-.258.986.738.738,0,0,0,.984.258,15.781,15.781,0,0,0,4.8-3.475A.732.732,0,0,0-629.363,514.2Z" transform="translate(790.009 -320.129)" fill="#0894c4"/><path d="M-631.959,513.507a.732.732,0,0,0-1.017,0l-3.121,3.087a.728.728,0,0,0,0,1.017.732.732,0,0,0,1.017,0l3.121-3.087A.727.727,0,0,0-631.959,513.507Z" transform="translate(789.543 -320.432)" fill="#0894c4"/><path d="M-602.287,603.821q-1.062-3.106-2.125-6.212a.737.737,0,0,0-.885-.5.727.727,0,0,0-.5.885l2.127,6.211a.737.737,0,0,0,.885.5A.726.726,0,0,0-602.287,603.821Z" transform="translate(802.922 -283.646)" fill="#0894c4"/><path d="M-598.2,602.193l-2.487-5.448a.727.727,0,0,0-.986-.259.739.739,0,0,0-.258.986l2.487,5.448a.725.725,0,0,0,.984.259A.738.738,0,0,0-598.2,602.193Z" transform="translate(804.599 -283.948)" fill="#0894c4"/><path d="M-593.4,599.493l-2.331-5.431a.723.723,0,0,0-.984-.258.738.738,0,0,0-.259.984q1.166,2.716,2.333,5.431a.723.723,0,0,0,.984.258A.739.739,0,0,0-593.4,599.493Z" transform="translate(806.776 -285.125)" fill="#0894c4"/><path d="M-598.474,608.179q-.768-2.04-1.534-4.081a.735.735,0,0,0-.885-.5.727.727,0,0,0-.5.885l1.533,4.081a.735.735,0,0,0,.885.5A.729.729,0,0,0-598.474,608.179Z" transform="translate(804.855 -280.799)" fill="#0894c4"/><path d="M-593.278,605.62l-2.291-4.29a.724.724,0,0,0-.984-.258.735.735,0,0,0-.258.984l2.29,4.288a.727.727,0,0,0,.984.259A.735.735,0,0,0-593.278,605.62Z" transform="translate(806.843 -281.936)" fill="#0894c4"/><path d="M-593.939,611.763q-.969-2.038-1.937-4.077a.724.724,0,0,0-.984-.258.739.739,0,0,0-.259.984q.969,2.038,1.937,4.077a.723.723,0,0,0,.984.258A.739.739,0,0,0-593.939,611.763Z" transform="translate(806.71 -279.145)" fill="#0894c4"/><path d="M-592.829,631.614A45.556,45.556,0,0,1-596.824,622a.721.721,0,0,0-1.389.383,47.31,47.31,0,0,0,4.14,9.961C-593.622,633.15-592.378,632.424-592.829,631.614Z" transform="translate(806.255 -272.928)" fill="#0894c4"/><path d="M-588.573,629.283q-1.744-4.367-3.49-8.732a.74.74,0,0,0-.885-.5.724.724,0,0,0-.5.885q1.744,4.365,3.49,8.732a.743.743,0,0,0,.885.5A.724.724,0,0,0-588.573,629.283Z" transform="translate(808.343 -273.573)" fill="#0894c4"/><path d="M-582.723,628.256q-2.079-4.682-4.159-9.363a.725.725,0,0,0-.984-.258.736.736,0,0,0-.258.984q2.079,4.68,4.159,9.361a.725.725,0,0,0,.984.259A.736.736,0,0,0-582.723,628.256Z" transform="translate(810.661 -274.221)" fill="#0894c4"/><path d="M-576.561,625.407a50.486,50.486,0,0,1-4.258-8.249.742.742,0,0,0-.885-.5.723.723,0,0,0-.5.885,52.484,52.484,0,0,0,4.4,8.593C-577.306,626.912-576.06,626.191-576.561,625.407Z" transform="translate(813.28 -275.062)" fill="#0894c4"/><path d="M-571.852,622.553q-2.036-3.59-4.074-7.179a.72.72,0,0,0-1.242.727q2.036,3.59,4.074,7.18A.72.72,0,0,0-571.852,622.553Z" transform="translate(815.465 -275.767)" fill="#0894c4"/><path d="M-567.066,620.42q-1.811-3.8-3.621-7.6a.726.726,0,0,0-.984-.259.736.736,0,0,0-.259.984q1.811,3.8,3.621,7.6a.725.725,0,0,0,.984.258A.735.735,0,0,0-567.066,620.42Z" transform="translate(817.77 -276.889)" fill="#0894c4"/><path d="M-561.835,616.538q-2.185-2.946-4.366-5.893a.741.741,0,0,0-.984-.258.725.725,0,0,0-.259.984l4.366,5.892a.741.741,0,0,0,.984.259A.725.725,0,0,0-561.835,616.538Z" transform="translate(819.732 -277.845)" fill="#0894c4"/><path d="M-573.058,599.831l-2.7-3.891a.735.735,0,0,0-.984-.258.728.728,0,0,0-.259.984l2.7,3.891a.735.735,0,0,0,.984.258A.728.728,0,0,0-573.058,599.831Z" transform="translate(815.536 -284.304)" fill="#0894c4"/><path d="M-577.064,601.439l-2.172-4.638a.726.726,0,0,0-.984-.259.735.735,0,0,0-.258.984l2.172,4.64a.726.726,0,0,0,.984.259A.738.738,0,0,0-577.064,601.439Z" transform="translate(814.017 -283.923)" fill="#0894c4"/><path d="M-578.451,594.178q-1.166-1.938-2.328-3.88a.73.73,0,0,0-.984-.259.733.733,0,0,0-.259.986q1.165,1.938,2.328,3.88a.731.731,0,0,0,.984.259A.733.733,0,0,0-578.451,594.178Z" transform="translate(813.334 -286.781)" fill="#0894c4"/><path d="M-629.4,486.492a.73.73,0,0,0-.984.259q-.866,1.733-1.73,3.468a.734.734,0,0,0,.259.984.729.729,0,0,0,.984-.258q.864-1.733,1.728-3.47A.734.734,0,0,0-629.4,486.492Z" transform="translate(791.343 -332.242)" fill="#0894c4"/><path d="M-626.177,489a.734.734,0,0,0-.43-.331.729.729,0,0,0-.885.5,8.656,8.656,0,0,1-.4,1.508c-.043.119-.086.242-.14.358l-.016.033c-.027.065-.058.128-.088.191q-.171.358-.374.7a.729.729,0,0,0,.258.984.734.734,0,0,0,.986-.258,9.167,9.167,0,0,0,1.157-3.134A.78.78,0,0,0-626.177,489Z" transform="translate(792.926 -331.256)" fill="#0894c4"/><path d="M-628.68,490.457a.73.73,0,0,0-.984.258l-1.692,3.1a.73.73,0,0,0,.258.984.73.73,0,0,0,.984-.258l1.692-3.1A.73.73,0,0,0-628.68,490.457Z" transform="translate(791.675 -330.502)" fill="#0894c4"/><path d="M-635.228,496.746a.731.731,0,0,0-.984.259q-.725,1.481-1.449,2.962a.733.733,0,0,0,.258.984.728.728,0,0,0,.984-.258l1.451-2.962A.736.736,0,0,0-635.228,496.746Z" transform="translate(788.909 -327.739)" fill="#0894c4"/><path d="M-633.463,499.245a.74.74,0,0,0-.717.712v0l0,.006,0,.023-.013.082c-.013.078-.026.157-.042.235-.03.157-.066.311-.107.465a7.878,7.878,0,0,1-.285.846c-.014.034-.03.069-.046.1-.033.072-.066.144-.1.216-.062.124-.128.248-.2.367a7.172,7.172,0,0,1-.53.793.721.721,0,0,0,.258.984.74.74,0,0,0,.984-.258,7.837,7.837,0,0,0,1.52-3.857A.721.721,0,0,0-633.463,499.245Z" transform="translate(789.848 -326.603)" fill="#0894c4"/><path d="M-635.324,502.767a.73.73,0,0,0-.984.258q-1.163,2.264-2.326,4.529a.731.731,0,0,0,.258.984.73.73,0,0,0,.984-.258l2.327-4.529A.733.733,0,0,0-635.324,502.767Z" transform="translate(788.481 -325.096)" fill="#0894c4"/><path d="M-615.184,506.963a.726.726,0,0,0-.984-.258.735.735,0,0,0-.258.984c.032.059.06.119.091.178l.007.014.017.045a3,3,0,0,1,.1.334c.017.065.03.13.043.2l.01.059c.009.124.017.247.016.373a1.085,1.085,0,0,1-.024.374c.014-.109.016-.124,0-.043l-.017.1c-.013.058-.026.114-.04.171s-.032.112-.049.167a.578.578,0,0,1-.068.188l.014-.033-.043.089q-.045.091-.095.177a.73.73,0,0,0,.259.984.732.732,0,0,0,.984-.258A3.982,3.982,0,0,0-615.184,506.963Z" transform="translate(798.216 -323.371)" fill="#0894c4"/><g transform="translate(178.051 189.329)"><path d="M-617.192,511.284c.019-.047.039-.108,0,0Z" transform="translate(619.884 -510.673)" fill="#0894c4"/><path d="M-615.45,510.863a.74.74,0,0,0-.885.5c-.016.04-.034.081-.049.121l.013-.035-.009.022c-.033.072-.068.144-.1.214a4.514,4.514,0,0,1-.237.414c-.042.068-.086.134-.132.2-.025.036-.05.071-.076.105h0c-.1.121-.2.24-.307.353s-.224.224-.344.33c-.058.05-.117.1-.174.145h0l-.088.063a5.145,5.145,0,0,1-.865.494.716.716,0,0,0-.331.43.736.736,0,0,0,.072.554.74.74,0,0,0,.984.259,5.914,5.914,0,0,0,3.035-3.288A.723.723,0,0,0-615.45,510.863Z" transform="translate(619.063 -510.841)" fill="#0894c4"/></g></g><path d="M-729.8,519.058a32.733,32.733,0,0,1-2.645-19.092c.148-.907-1.238-1.3-1.389-.383a34.443,34.443,0,0,0,2.792,20.2C-730.654,520.624-729.412,519.894-729.8,519.058Z" transform="translate(790.264 -306.478)" fill="#12772b"/><path d="M-731.044,520.121a22.32,22.32,0,0,1-5.784-13.691c-.053-.921-1.494-.927-1.439,0a23.9,23.9,0,0,0,6.205,14.709C-731.435,521.823-730.419,520.8-731.044,520.121Z" transform="translate(788.519 -303.548)" fill="#12772b"/><path d="M-535.623,427.625l-9.554,6.493c-.763.517-.043,1.764.725,1.242l9.555-6.493C-534.135,428.349-534.854,427.1-535.623,427.625Z" transform="translate(873.159 -337.9)" fill="#12772b"/><path d="M-532.267,434.56a61.958,61.958,0,0,1-11.127,2.569.724.724,0,0,0-.5.885.739.739,0,0,0,.885.5,61.845,61.845,0,0,0,11.128-2.567C-531.009,435.66-531.383,434.269-532.267,434.56Z" transform="translate(873.854 -334.817)" fill="#12772b"/><path d="M-534,444.689l-10.092-2.055c-.9-.184-1.291,1.2-.383,1.387l10.094,2.055C-533.476,446.261-533.088,444.873-534,444.689Z" transform="translate(873.383 -331.262)" fill="#12772b"/><path d="M-528.456,521.886a16.164,16.164,0,0,1-3.632,10.816c-.584.709.427,1.733,1.018,1.017a17.667,17.667,0,0,0,4.054-11.833C-527.049,520.962-528.488,520.958-528.456,521.886Z" transform="translate(878.972 -296.762)" fill="#12772b"/><path d="M-523.72,524.046a16.058,16.058,0,0,1-3.832,10.6c-.6.7.413,1.723,1.017,1.019a17.59,17.59,0,0,0,4.254-11.619A.72.72,0,0,0-523.72,524.046Z" transform="translate(880.96 -295.814)" fill="#12772b"/><path d="M-557.33,540.845a13.924,13.924,0,0,1-8.175,1.36.724.724,0,0,0-.72.72.738.738,0,0,0,.72.72,15.231,15.231,0,0,0,8.9-1.557C-555.779,541.667-556.505,540.425-557.33,540.845Z" transform="translate(864.06 -288.17)" fill="#12772b"/><path d="M-555.326,546.878a.726.726,0,0,0-.885-.5,19.138,19.138,0,0,1-7.312,1.268.72.72,0,0,0,0,1.439,20.228,20.228,0,0,0,7.693-1.32A.741.741,0,0,0-555.326,546.878Z" transform="translate(864.941 -285.719)" fill="#12772b"/></g><path d="M-604.715,484.44a5.954,5.954,0,0,0,2.4,4.617,5.953,5.953,0,0,0,5.127.882" transform="translate(73.973 52.339)" fill="none" stroke="#ff7900" stroke-miterlimit="10" stroke-width="0.25"/><g transform="translate(-566.557 461.664)"><g transform="translate(58.213 27.032)"><path d="M-578.066,451.289a24.223,24.223,0,0,0-5.61,8.529c-.966,2.491-2.416,6.638-.406,8.989,1.026,1.2,2.562,1.425,3.9,2.1,1.615.807,2.763,2.746,1.786,4.481s-3.54,1.505-5.211,1.137a4.808,4.808,0,0,1-3.752-2.649c-.406-1.071-2.146-.606-1.734.479,1.233,3.247,4.992,4.376,8.208,4.172,3.544-.224,5.835-3.665,3.993-6.929-.931-1.651-2.492-2.3-4.168-2.966-1-.4-1.864-.856-2.12-2a7.091,7.091,0,0,1,.213-2.936,22.172,22.172,0,0,1,6.166-11.136c.826-.813-.446-2.085-1.272-1.272Z" transform="translate(589.15 -451.028)" fill="#ff7900"/></g><path d="M-625.562,434.4c1.363-.278,2.949-.642,4.293-.091a2.2,2.2,0,0,1,1.477,2.51l.629-.629c-3.516.745-8.046,1.043-9.886,4.709-.74,1.472-.865,3.493.439,4.707a2.6,2.6,0,0,0,4-.548c.514-1.033-1.036-1.946-1.553-.907a.662.662,0,0,1-.744.355,1.054,1.054,0,0,1-.833-.851,3.255,3.255,0,0,1,1.091-3.008c2.065-2.064,5.277-2.153,7.965-2.723a.905.905,0,0,0,.629-.629,3.9,3.9,0,0,0-2.009-4.391c-1.82-1.04-4.032-.636-5.975-.24-1.133.232-.653,1.966.479,1.734Z" transform="translate(629.602 -432.243)" fill="#ff7900"/></g></g></svg>