<svg xmlns="http://www.w3.org/2000/svg" width="417.94" height="411.039" viewBox="0 0 417.94 411.039"><g transform="translate(-26.15 -57.626)"><g transform="translate(26.15 241.346)"><path d="M35.776,242.535s-12.921,3.011-2.962,31,17.537,42.195,17.537,42.195,1.578,6.4-3.674,6.678-16.307-3-19.412,2.978c-3.22,6.2.7,12.956,9.586,19.593s27.805,21.9,29.511,23.282c1.675,1.361,3.131,4.435-.416,5.2s-29.293.094-28.879,12.328,28.194,26.664,31.2,28.3,3.589,3.076,3.1,4.781-9.117.664-16.447.773-15.811,1.523-14.98,8.562S56.181,451.814,97.6,461.407l19.481,3.189,12.807-15.137c25.433-34.065,26.5-56.668,22.588-62.579s-11.3-1.516-16.967,3.133-11.589,11.016-13.06,10.027-1.957-2.464-.717-5.654,13.14-32.144,5.557-41.754-26.812,7.521-30.012,9.229-4.073-1.578-3.673-3.7c.408-2.16,5.008-26.029,7.505-36.833s1.131-18.5-5.33-21.151c-6.229-2.559-12.557,7.08-16.746,10.26s-7.116-2.729-7.116-2.729-3.384-15.74-13.85-43.544-22.544-21.552-22.544-21.552" transform="translate(-26.15 -242.012)" fill="#ebebeb"/><g transform="translate(18.501 25.605)"><path d="M117.884,469.877c-7.606-20.45-20.514-57.026-31.759-88.37s-21.446-59.692-28.948-80.18c-3.755-10.221-6.8-18.5-8.909-24.252l-2.417-6.6c-.263-.738-.468-1.31-.614-1.721-.135-.389-.19-.593-.19-.593s.094.19.249.572l.671,1.7c.587,1.524,1.436,3.728,2.526,6.556,2.187,5.7,5.293,13.96,9.092,24.188C65.19,321.629,75.46,349.967,86.7,381.3s24.088,67.939,31.59,88.427" transform="translate(-45.046 -268.163)" fill="#e0e0e0"/></g><g transform="translate(16.397 88.576)"><path d="M42.9,332.48a6.449,6.449,0,0,1,1.315.558c.83.392,2.013.994,3.469,1.75,2.907,1.52,6.869,3.721,11.2,6.228l11.056,6.459,3.36,1.935a6.378,6.378,0,0,1,1.208.761,6.485,6.485,0,0,1-1.319-.548c-.829-.395-2.013-1-3.461-1.768-2.892-1.549-6.825-3.8-11.151-6.308l-11.1-6.378L44.1,333.25A6.458,6.458,0,0,1,42.9,332.48Z" transform="translate(-42.896 -332.476)" fill="#e0e0e0"/></g><g transform="translate(49.5 68.099)"><path d="M76.709,348.658c-.15-.078,4.027-8.446,9.329-18.688s9.725-18.485,9.875-18.408-4.026,8.444-9.33,18.69S76.859,348.736,76.709,348.658Z" transform="translate(-76.705 -311.562)" fill="#e0e0e0"/></g><g transform="translate(64.597 126.322)"><path d="M92.126,398.8a6.694,6.694,0,0,1,.953-1.1l2.733-2.868c2.3-2.424,5.469-5.787,8.826-9.624s6.295-7.4,8.392-10.008l2.489-3.083a6.718,6.718,0,0,1,.968-1.089,6.543,6.543,0,0,1-.778,1.233c-.535.77-1.327,1.869-2.337,3.206-2.013,2.676-4.9,6.3-8.273,10.146s-6.592,7.173-8.979,9.523c-1.2,1.171-2.178,2.108-2.874,2.735A6.6,6.6,0,0,1,92.126,398.8Z" transform="translate(-92.124 -371.026)" fill="#e0e0e0"/></g><g transform="translate(31.347 145.65)"><path d="M58.165,390.778a5.7,5.7,0,0,1,1.334.2l3.584.76c3.02.669,7.18,1.632,11.767,2.735s8.735,2.132,11.728,2.908l3.538.95a5.718,5.718,0,0,1,1.278.43,5.706,5.706,0,0,1-1.334-.2l-3.583-.76c-3.02-.669-7.181-1.632-11.77-2.735s-8.732-2.132-11.726-2.908l-3.538-.95A5.724,5.724,0,0,1,58.165,390.778Z" transform="translate(-58.165 -390.767)" fill="#e0e0e0"/></g><g transform="translate(39.188 190.519)"><path d="M66.174,436.6a9.312,9.312,0,0,1,1.7.269l4.6.958c3.874.834,9.218,2.029,15.11,3.384s11.222,2.617,15.072,3.56l4.552,1.148a9.163,9.163,0,0,1,1.65.5,9.27,9.27,0,0,1-1.7-.27l-4.6-.958c-3.874-.834-9.219-2.028-15.113-3.385s-11.22-2.616-15.07-3.559L67.825,437.1A9.4,9.4,0,0,1,66.174,436.6Z" transform="translate(-66.174 -436.592)" fill="#e0e0e0"/></g><g transform="translate(80.916 163.748)"><path d="M108.792,445.328a10.728,10.728,0,0,1,1.171-1.429l3.333-3.762c2.811-3.179,6.676-7.584,10.8-12.568s7.764-9.585,10.365-12.936l3.085-3.968a10.686,10.686,0,0,1,1.188-1.414,10.6,10.6,0,0,1-1,1.556c-.674.979-1.67,2.379-2.932,4.088-2.515,3.423-6.094,8.079-10.24,13.067s-8.059,9.361-10.955,12.467c-1.452,1.55-2.64,2.794-3.48,3.634A10.622,10.622,0,0,1,108.792,445.328Z" transform="translate(-108.79 -409.25)" fill="#e0e0e0"/></g><g transform="translate(287.336 41.102)"><path d="M355.974,465.526c-26.649-15.846-34.816-48.294-35.985-77.915-.195-4.944-1.119-10.1.909-14.6s7.286-7.86,11.854-6.106c3.789,1.455,5.7,5.6,8.007,8.971a28.925,28.925,0,0,0,12.379,10.2c3.261,1.4,7.219,2.109,10.194.171,4.082-2.659,4.151-8.574,3.76-13.478Q366,359.056,364.9,345.35c-.391-4.9-.773-9.91.41-14.678s4.237-9.34,8.806-10.991,10.539.617,11.878,5.346c.557,1.968.3,4.072.588,6.1s1.4,4.209,3.375,4.634c2,.432,3.861-1.1,5.222-2.648a55.137,55.137,0,0,0,10.41-18.539c2.473-7.151,4.879-14.363,9.581-19.046,5.039-5.017,10.237-10.487,17.233-11.4s14.8,2.872,17.082,9.638c2.288,6.785-1.23,14.1-5.209,20.018a109.768,109.768,0,0,1-21.2,23.407c-1.465,1.211-3.054,2.521-3.512,4.382-.824,3.349,2.512,6.368,5.821,7.206,3.745.949,7.685.277,11.543.446s8.126,1.552,9.838,5.06c2.377,4.866-1.43,10.43-5.3,14.175a94.056,94.056,0,0,1-26.583,18.066c-3.512,1.585-7.224,3.023-9.948,5.772s-4.155,7.287-2.143,10.613,6.607,4.1,10.335,3.123,6.961-3.279,10.462-4.9c6.554-3.039,15.294-3.215,20.041,2.294,3.119,3.621,3.761,8.935,2.661,13.605s-3.722,8.817-6.546,12.67c-9.873,13.47-22.955,24.693-38.2,31.264s-29.62,9.1-45.579,4.564" transform="translate(-319.61 -283.99)" fill="#ebebeb"/><g transform="translate(42.63 3.565)"><path d="M363.148,446.519c3.253-15.231,8.2-31.631,13.969-48.606l4.316-12.552c1.427-4.116,2.84-8.2,4.47-12.107a220.361,220.361,0,0,1,10.652-21.917c3.726-6.808,7.509-13.132,11.089-19.02,3.6-5.883,7.049-11.3,10.407-16.107a174.535,174.535,0,0,1,17.521-21.473c2.258-2.366,4.07-4.142,5.316-5.329.6-.564,1.069-1.009,1.424-1.341a3.611,3.611,0,0,1,.506-.434,3.514,3.514,0,0,1-.442.5l-1.361,1.405c-1.2,1.23-2.973,3.045-5.19,5.444a184.649,184.649,0,0,0-17.249,21.6c-3.316,4.815-6.731,10.242-10.291,16.132s-7.3,12.23-11,19.031A222.6,222.6,0,0,0,386.722,373.6c-1.616,3.888-3.013,7.936-4.439,12.064s-2.854,8.311-4.31,12.548c-5.761,16.962-10.723,33.313-14.011,48.489" transform="translate(-363.148 -287.631)" fill="#e0e0e0"/></g><g transform="translate(54.499 35.691)"><path d="M386.412,373.884a10.06,10.06,0,0,1-.633-2.057c-.357-1.336-.811-3.287-1.335-5.7-1.053-4.834-2.278-11.558-3.6-18.976s-2.641-14.11-3.764-18.914c-.555-2.4-1.024-4.344-1.365-5.681a9.861,9.861,0,0,1-.431-2.11,9.824,9.824,0,0,1,.768,2.011c.446,1.31,1.011,3.232,1.646,5.623,1.288,4.781,2.711,11.477,4.035,18.907,1.288,7.324,2.451,13.95,3.341,19.012.415,2.284.768,4.209,1.051,5.754A9.782,9.782,0,0,1,386.412,373.884Z" transform="translate(-375.27 -320.442)" fill="#e0e0e0"/></g><g transform="translate(65.64 72.684)"><path d="M448.85,358.25a13.773,13.773,0,0,1-2.493.486c-1.608.263-3.936.631-6.8,1.178-5.73,1.048-13.6,2.773-22.19,5.056-8.593,2.3-16.28,4.71-21.79,6.615-2.764.933-4.979,1.748-6.513,2.3a13.559,13.559,0,0,1-2.417.785,13.556,13.556,0,0,1,2.288-1.117c1.5-.656,3.684-1.566,6.428-2.581,5.47-2.067,13.155-4.583,21.773-6.891a223.213,223.213,0,0,1,22.313-4.808c2.885-.466,5.234-.739,6.862-.892A13.243,13.243,0,0,1,448.85,358.25Z" transform="translate(-386.649 -358.223)" fill="#e0e0e0"/></g><g transform="translate(5.642 83.019)"><path d="M363.05,446.994a3.217,3.217,0,0,1-.49-.737l-1.245-2.2c-1.074-1.917-2.556-4.732-4.34-8.234-3.574-7-8.206-16.827-13.171-27.74s-9.5-20.773-12.925-27.839l-4.078-8.357c-.44-.913-.8-1.664-1.1-2.281a3.294,3.294,0,0,1-.328-.825,3.351,3.351,0,0,1,.49.739c.337.6.748,1.321,1.245,2.2,1.074,1.917,2.556,4.732,4.339,8.234,3.574,7,8.206,16.828,13.173,27.745s9.5,20.768,12.924,27.835c1.676,3.433,3.053,6.259,4.077,8.356.44.913.8,1.666,1.1,2.281A3.306,3.306,0,0,1,363.05,446.994Z" transform="translate(-325.372 -368.778)" fill="#e0e0e0"/></g><g transform="translate(43.32 128.059)"><path d="M445.674,414.784a3.35,3.35,0,0,1-.807.4l-2.373.995-8.761,3.567c-7.4,3.015-17.565,7.3-28.794,12.04s-21.45,8.939-28.912,11.8c-3.73,1.432-6.76,2.56-8.869,3.3-.976.334-1.78.609-2.434.834a3.278,3.278,0,0,1-.87.231,3.47,3.47,0,0,1,.806-.405c.638-.265,1.423-.594,2.374-.993l8.759-3.568c7.4-3.013,17.567-7.295,28.8-12.041s21.446-8.938,28.907-11.8c3.73-1.433,6.76-2.561,8.871-3.3.975-.334,1.778-.611,2.434-.834A3.294,3.294,0,0,1,445.674,414.784Z" transform="translate(-363.853 -414.778)" fill="#e0e0e0"/></g></g></g><g transform="translate(342.915 57.626)"><g transform="translate(0 0)"><path d="M398.406,54.393a5.94,5.94,0,0,1,.836-.011l2.457.056c.54.02,1.147.02,1.811.065l2.167.244,2.53.292,2.825.563a52.2,52.2,0,0,1,13.7,4.793,46.112,46.112,0,0,1,14.164,11.073,35.216,35.216,0,0,1,8.036,18.088,32.307,32.307,0,0,1,.133,5.316c-.078.9-.056,1.812-.219,2.719s-.341,1.819-.514,2.739a34.109,34.109,0,0,1-4.6,10.817,43.456,43.456,0,0,1-8.8,9.723,52.161,52.161,0,0,1-12.683,7.313,54.656,54.656,0,0,1-15.459,3.809,37.862,37.862,0,0,1-4.123.281c-1.384.073-2.772.114-4.167.062a61.167,61.167,0,0,1-8.349-.847,55.826,55.826,0,0,1-16.62-5.614l.5.041L355.1,131.366l-1,.323.286-.835q2.561-7.48,4.976-14.527l.085.358a35.641,35.641,0,0,1-9.034-16.6,28.453,28.453,0,0,1-.658-8.5,22.1,22.1,0,0,1,.481-4.085q.192-1,.384-1.988c.152-.654.4-1.287.592-1.924,3.27-10.226,11.117-17.78,18.887-22.1a51.087,51.087,0,0,1,11.24-4.76l2.532-.727,2.4-.491,2.2-.437c.706-.109,1.386-.167,2.025-.246,1.28-.13,2.4-.308,3.39-.347l2.487-.068,1.52-.027a2.843,2.843,0,0,1,.514.015,2.728,2.728,0,0,1-.513.057l-1.513.1-2.471.134c-.978.061-2.091.258-3.358.409a55.15,55.15,0,0,0-20.082,6.806C362.849,66.22,355.2,73.7,352.056,83.754c-.185.627-.426,1.248-.57,1.891q-.181.969-.365,1.953a21.632,21.632,0,0,0-.448,4.011,27.982,27.982,0,0,0,.686,8.338,35.055,35.055,0,0,0,8.91,16.239l.153.163-.067.2q-2.394,7.041-4.94,14.536l-.717-.512,16.921-5.47.265-.085.24.127a54.692,54.692,0,0,0,16.249,5.483,60.074,60.074,0,0,0,8.16.828c1.364.052,2.723.012,4.075-.059a37.193,37.193,0,0,0,4.032-.273,53.485,53.485,0,0,0,15.118-3.712,51.257,51.257,0,0,0,12.422-7.136,42.759,42.759,0,0,0,8.646-9.5,33.541,33.541,0,0,0,4.551-10.585q.261-1.351.517-2.682c.165-.888.146-1.785.228-2.666a31.786,31.786,0,0,0-.1-5.217,34.668,34.668,0,0,0-7.773-17.808,45.585,45.585,0,0,0-13.853-11.005,52.286,52.286,0,0,0-13.473-4.876l-2.791-.6-2.5-.33-2.147-.284c-.659-.059-1.261-.072-1.8-.107l-2.444-.143A5.773,5.773,0,0,1,398.406,54.393Z" transform="translate(-349.666 -54.378)" fill="#263238"/><g transform="translate(13.978 34.343)"><path d="M373.2,89.551v1.93h-3.535v9.42h-2.188v-9.42h-3.536v-1.93Z" transform="translate(-363.942 -89.454)" fill="#263238"/><path d="M377.149,89.551V94.4h5.658V89.551h2.174V100.9h-2.174V96.3h-5.658v4.6h-2.173V89.551Z" transform="translate(-364.172 -89.454)" fill="#263238"/><path d="M395.429,98.5h-5.545l-1,2.4h-2.254l4.977-11.35h2.254l4.912,11.35h-2.334Zm-.777-1.865-1.978-4.766-2.011,4.766Z" transform="translate(-364.415 -89.454)" fill="#263238"/><path d="M402.5,89.551l5.853,7.767V89.551h2.108V100.9H408.4l-5.838-7.75v7.75h-2.124V89.551Z" transform="translate(-364.704 -89.454)" fill="#263238"/><path d="M421.056,100.9l-3.536-4.864L415.7,98.048V100.9h-2.173V89.551H415.7V95.1l5.14-5.546h2.529l-4.329,4.8,4.636,6.55Z" transform="translate(-364.977 -89.454)" fill="#263238"/><path d="M429.269,91.431c-1.022,0-1.686.372-1.686,1.07,0,2.3,6.1,1.054,6.08,5.123,0,2.125-1.849,3.356-4.345,3.356a7.378,7.378,0,0,1-4.8-1.815l.909-1.833A6.383,6.383,0,0,0,429.349,99c1.216,0,1.947-.454,1.947-1.248,0-2.368-6.1-1.022-6.1-5.059,0-1.978,1.7-3.243,4.248-3.243a7.731,7.731,0,0,1,4.1,1.2l-.875,1.882A7.257,7.257,0,0,0,429.269,91.431Z" transform="translate(-365.206 -89.452)" fill="#263238"/><path d="M437.675,99.867a1.113,1.113,0,1,1-2.222,0,1.112,1.112,0,1,1,2.222,0Zm-.1-10.2v2.822l-.356,4.718h-1.313l-.356-4.718V89.667Z" transform="translate(-365.434 -89.457)" fill="#263238"/></g></g></g><g transform="translate(88.829 100.703)"><g transform="translate(15.347)"><path d="M145.489,189.382s-30.2-5.077-36.947,12.9c-5.71,15.2,18.094,42.378,18.094,42.378l19.913-19.037Z" transform="translate(-105.877 -100.258)" fill="#ffbe9d"/><g transform="translate(0 120.474)"><path d="M105.839,273.01s.807,35.617,11.581,68.723c3.551,10.914,15.7,68.142,15.7,68.142-11.956,23.31-20.655,36.927-24.273,57.686H260.439l-11.48-69.527s4.648-56,4.69-56.548c3.339-43.621,5.959-91.318,3.581-92.949-15.472-10.617-46.468-24.893-66.6-26.986S111.493,241.581,105.839,273.01Z" transform="translate(-105.839 -221.414)" fill="#263238"/><g transform="translate(35.085 140.036)"><path d="M203.507,364.435a5.13,5.13,0,0,1-.258.8l-.835,2.266q-.279.743-.616,1.634c-.245.589-.558,1.209-.869,1.886a49.366,49.366,0,0,1-2.283,4.52q-.7,1.225-1.459,2.561c-.516.886-1.15,1.746-1.754,2.67-1.175,1.875-2.675,3.7-4.2,5.659a74.73,74.73,0,0,1-25.259,19.781c-2.269,1.012-4.4,2.032-6.5,2.724-1.042.364-2.03.774-3.013,1.061l-2.837.8a49.274,49.274,0,0,1-4.935,1.133c-.732.141-1.409.3-2.04.393l-1.734.207-2.4.267a5.119,5.119,0,0,1-.839.059,5.2,5.2,0,0,1,.828-.161l2.382-.362,1.722-.249c.626-.111,1.3-.28,2.024-.433,1.445-.337,3.117-.616,4.895-1.2l2.812-.83c.974-.3,1.953-.713,2.986-1.083,2.083-.7,4.2-1.733,6.444-2.75a75.962,75.962,0,0,0,25.1-19.659c1.526-1.939,3.031-3.743,4.214-5.6.608-.913,1.246-1.763,1.768-2.639l1.479-2.531c.995-1.585,1.665-3.141,2.339-4.464.323-.669.648-1.281.906-1.861.237-.585.456-1.124.654-1.613q.58-1.4.923-2.227A5.285,5.285,0,0,1,203.507,364.435Z" transform="translate(-141.672 -364.435)" fill="#455a64"/></g><g transform="translate(36.132 162.696)"><path d="M234.607,387.578a1.02,1.02,0,0,1-.165.2l-.522.558q-.74.768-2.041,2.114l-1.484,1.52c-.559.539-1.2,1.086-1.875,1.695-1.366,1.192-2.854,2.633-4.694,3.989l-2.83,2.2c-.99.758-2.091,1.447-3.194,2.215-2.181,1.573-4.684,2.983-7.283,4.525a112.129,112.129,0,0,1-17.958,7.927,112.179,112.179,0,0,1-19.142,4.373c-3,.316-5.854.68-8.545.723-1.341.042-2.637.148-3.883.131l-3.585-.075c-2.286.012-4.341-.255-6.148-.395-.9-.086-1.746-.141-2.515-.239l-2.1-.332-2.9-.476-.751-.136a.962.962,0,0,1-.253-.064,1.012,1.012,0,0,1,.261.013l.76.086,2.909.38,2.1.287c.77.084,1.612.124,2.512.2,1.8.113,3.853.354,6.131.318l3.572.042c1.242.007,2.531-.109,3.868-.161,2.677-.059,5.513-.439,8.5-.766a114.4,114.4,0,0,0,19.043-4.39,114.554,114.554,0,0,0,17.891-7.854c2.592-1.524,5.092-2.914,7.276-4.466,1.1-.757,2.205-1.434,3.2-2.182l2.839-2.167c1.849-1.334,3.347-2.75,4.727-3.918.68-.6,1.331-1.132,1.9-1.659l1.513-1.484,2.106-2.043.558-.524A1.011,1.011,0,0,1,234.607,387.578Z" transform="translate(-142.741 -387.578)" fill="#455a64"/></g><g transform="translate(82.326 20.951)"><path d="M201.993,242.815c.022.046-.6.335-1.638.971a17.871,17.871,0,0,0-3.927,3.32,22.361,22.361,0,0,0-3.986,6.477,27.917,27.917,0,0,0-1.984,9.1c-.258,6.682,1.375,12.624,2.562,16.819.611,2.106,1.146,3.8,1.5,4.977.161.541.294.99.4,1.356a1.869,1.869,0,0,1,.108.484,1.809,1.809,0,0,1-.206-.451c-.133-.358-.3-.8-.493-1.327-.417-1.155-1-2.836-1.662-4.935a69.987,69.987,0,0,1-1.935-7.49,40.683,40.683,0,0,1-.791-9.455,27.652,27.652,0,0,1,2.059-9.261,22.015,22.015,0,0,1,4.153-6.542,16.651,16.651,0,0,1,4.093-3.247,10.842,10.842,0,0,1,1.275-.627A1.764,1.764,0,0,1,201.993,242.815Z" transform="translate(-189.92 -242.812)" fill="#455a64"/></g></g><g transform="translate(20.188)"><path d="M217.312,215.47c4.69,1.684,10.166,3.287,14.457.476,2.951-1.933,4.5-5.476,5.815-8.835a247,247,0,0,0,7.938-23.881s11.707-27.185,11.249-42.608,1.772-22.191-18.471-27.654-72.192,86.173-72.192,86.173Z" transform="translate(-127.285 -98.672)" fill="#ffbe9d"/><path d="M256.625,129.605s11.785-21.9-3.712-28.584-30.1,1.4-30.1,1.4-42.8-6.912-50.837,10-18.051,30.891-15.828,46.8,11.2,34.723,11.2,34.723c12.975,6.166,29.919,2.4,39.06-8.686a82.8,82.8,0,0,0,11.366-17.794c3.332-6.854,11.521-12.944,16.792-5.662.825,1.141,4.634.728,5.422-1.858,1.46-4.789,1.095-14,3.646-14.535,3.931-.817,7.956-2.067,10.838-4.862s4.237-7.512,2.143-10.937" transform="translate(-127.071 -98.373)" fill="#002609"/><g transform="translate(98.82 66.262)"><path d="M231.042,174.384a2.578,2.578,0,0,1-1.763-.6,4.2,4.2,0,0,1,.936-7.489,2.58,2.58,0,0,1,1.857-.15,9.834,9.834,0,0,0-1.717.482,3.971,3.971,0,0,0-.859,6.87A9.746,9.746,0,0,0,231.042,174.384Z" transform="translate(-227.384 -166.047)" fill="#eb996e"/></g><path d="M223.208,164.389a16.747,16.747,0,0,0-4.089,11.643,8.311,8.311,0,0,0,1.93,5.426c1.353,1.422,3.741,1.975,5.328.821a1.447,1.447,0,0,0,.668-1.657,1.947,1.947,0,0,0-.694-.67,11.021,11.021,0,0,1-2.432-15.656" transform="translate(-128.391 -99.748)" fill="#eb996e"/><g transform="translate(93.018 60.172)"><path d="M234.63,162.045a12.714,12.714,0,0,0-.972-1,4.4,4.4,0,0,0-3.528-.8l-.014,0h-.007a8.64,8.64,0,0,0-4.906,2.435,10.9,10.9,0,0,0-3.028,6.005,13.1,13.1,0,0,0,.528,6.767,6.769,6.769,0,0,0,3.619,4,5.614,5.614,0,0,0,3.674.3,11.922,11.922,0,0,0,1.286-.541c.011.015-.084.1-.279.244a4.121,4.121,0,0,1-.947.488,5.617,5.617,0,0,1-3.87-.158,7.059,7.059,0,0,1-3.919-4.163,13.293,13.293,0,0,1-.593-7.026,11.189,11.189,0,0,1,3.206-6.256,8.842,8.842,0,0,1,5.194-2.455l-.02,0a4.507,4.507,0,0,1,3.733,1,3.456,3.456,0,0,1,.681.822C234.59,161.922,234.646,162.036,234.63,162.045Z" transform="translate(-221.458 -159.827)" fill="#263238"/></g><g transform="translate(28.767 40.838)" opacity="0.2"><path d="M158.892,147.868c2.744,3.769,6.262,7.158,8.513,11.24a43.287,43.287,0,0,1,4.521,15.376c1.025,7.82.628,13.919-2.5,21.4,5.141-1.583,7.817-5.175,8.73-10.478a39.3,39.3,0,0,0-1.311-17.081,34.971,34.971,0,0,0-10.534-16.287c-3.512-3.1-9.423-7.4-10.473-11.963C155.838,140.081,157.086,145.388,158.892,147.868Z" transform="translate(-155.838 -140.081)"/></g><g transform="translate(33.279 20.68)" opacity="0.2"><path d="M160.446,135.8a15.726,15.726,0,0,0,27.4-14.592,2.467,2.467,0,0,0-1.191-1.619,1.876,1.876,0,0,0-2.2,1.069,7.212,7.212,0,0,0-.505,2.62,14.767,14.767,0,0,1-21.844,11.5" transform="translate(-160.446 -119.494)"/></g><g transform="translate(0 7.281)"><path d="M181.391,111.408a10.105,10.105,0,0,0-8.972-2.166,19.279,19.279,0,0,0-7.9,4.14,23.923,23.923,0,0,0-7.009,8.059,11.812,11.812,0,0,0-.275,10.386c2.111,4.081,7.078,6.049,11.667,5.831a17.794,17.794,0,0,0,14.969-10.065c2.66-5.733,3.476-12.177-2.483-16.184" transform="translate(-127.077 -105.876)" fill="#263238"/><path d="M145.627,188.173l23.483,6.634s3.112-1.793,2.322-15.91c-.373-6.675-5.613-12.71-7.8-19.028-1.8-5.214-4.719-9.978-6.637-15.15s-3.239-9.992-.839-14.958,7.476-5.093,12.285-2.392a12.437,12.437,0,0,0,5.856-7.089c-2.911-7.57-7.427-10.937-12.757-12.9a23.267,23.267,0,0,0-20.625,1.836c-7.4,4.735-11.675,12.858-13.5,21.273-.017.08-.034.162-.052.242a42.249,42.249,0,0,0,4.29,28.989c3.664,6.681,6.956,18.433.623,27.421l9.309.417A19.406,19.406,0,0,1,145.627,188.173Z" transform="translate(-126.457 -105.809)" fill="#002609"/><g transform="translate(37.523 10.033)"><path d="M175.425,116.056a9.348,9.348,0,0,1-.1,2.686,12.878,12.878,0,0,1-2.311,6.073,8.413,8.413,0,0,1-2.737,2.385,7.033,7.033,0,0,1-2.854.81,5.616,5.616,0,0,1-1.981-.229,1.572,1.572,0,0,1-.66-.311,9.732,9.732,0,0,0,2.61.181,7.179,7.179,0,0,0,2.66-.863,8.4,8.4,0,0,0,2.555-2.279,13.872,13.872,0,0,0,2.361-5.823C175.262,117.072,175.344,116.049,175.425,116.056Z" transform="translate(-164.781 -116.056)" fill="#455a64"/></g><g transform="translate(11.768 6.821)"><path d="M143.889,187.8a24.61,24.61,0,0,0,2.343-3.433,14.745,14.745,0,0,0,1.484-4.6,23.262,23.262,0,0,0-.058-6.427,98.005,98.005,0,0,0-4-16.362c-.984-3.023-2.093-6.175-3.056-9.511a51.141,51.141,0,0,1-2.058-10.551,30.909,30.909,0,0,1,1.082-10.7,21.112,21.112,0,0,1,2-4.738,16.943,16.943,0,0,1,3-3.919,16.271,16.271,0,0,1,7.92-4.35,16.785,16.785,0,0,1,7.888.086,16.141,16.141,0,0,1,5.843,2.879,16.585,16.585,0,0,1,3.415,3.541,15.688,15.688,0,0,1,1.549,2.695c.146.324.233.582.3.751a1.1,1.1,0,0,1,.083.262,1.1,1.1,0,0,1-.131-.243c-.082-.162-.184-.412-.344-.727a17.515,17.515,0,0,0-1.616-2.621,16.789,16.789,0,0,0-3.429-3.431,15.978,15.978,0,0,0-5.758-2.757,16.518,16.518,0,0,0-7.7-.023,15.883,15.883,0,0,0-7.685,4.272,16.5,16.5,0,0,0-2.9,3.827,20.685,20.685,0,0,0-1.941,4.637,30.585,30.585,0,0,0-1.052,10.523,51.15,51.15,0,0,0,2.029,10.447c.951,3.319,2.049,6.472,3.023,9.5a95.372,95.372,0,0,1,3.908,16.463A23.188,23.188,0,0,1,148,179.8a14.63,14.63,0,0,1-1.59,4.654,11.746,11.746,0,0,1-.964,1.517,8.622,8.622,0,0,1-.814,1.032l-.542.6A1.072,1.072,0,0,1,143.889,187.8Z" transform="translate(-138.477 -112.776)" fill="#263238"/></g><g transform="translate(27.966 19.878)"><path d="M169.231,128.675a6.9,6.9,0,0,0-2.7-1.856,7.964,7.964,0,0,0-8.261,1.9c-2.692,2.687-3.684,7.76-1.952,12.482a27,27,0,0,0,3.8,6.9c1.634,2.214,3.465,4.442,5.121,6.88a40.718,40.718,0,0,1,4.2,7.52,38.56,38.56,0,0,1,2.069,7.75,72.239,72.239,0,0,1,.96,7.181,54.794,54.794,0,0,1,.063,6.314c-.093,1.934-.315,3.659-.466,5.183a14.712,14.712,0,0,1-.863,3.845,8.659,8.659,0,0,1-1.228,2.167,6.339,6.339,0,0,1-.414.5c-.1.109-.15.161-.157.155a8.11,8.11,0,0,1,.488-.712,9.418,9.418,0,0,0,1.126-2.178c.764-2,.9-5.159,1.153-8.973a56.584,56.584,0,0,0-.123-6.268c-.156-2.244-.575-4.625-1-7.13a38.58,38.58,0,0,0-2.071-7.645,40.707,40.707,0,0,0-4.154-7.418c-1.645-2.422-3.456-4.63-5.106-6.875a27.236,27.236,0,0,1-3.842-7.045c-1.757-4.866-.7-10.114,2.138-12.888a8.018,8.018,0,0,1,4.675-2.283,7.762,7.762,0,0,1,3.914.451A6.038,6.038,0,0,1,168.69,128a5.131,5.131,0,0,1,.417.5A.733.733,0,0,1,169.231,128.675Z" transform="translate(-155.02 -126.111)" fill="#263238"/></g></g><g transform="translate(55.15 13.07)"><path d="M182.784,126.716a2.875,2.875,0,0,1,.385-.5c.273-.307.648-.789,1.2-1.346a39.864,39.864,0,0,1,4.945-4.42,42.571,42.571,0,0,1,41.6-5.725,39.663,39.663,0,0,1,5.954,2.919c.681.387,1.171.75,1.518.972a2.806,2.806,0,0,1,.505.375,2.942,2.942,0,0,1-.56-.288c-.363-.194-.869-.529-1.562-.888a45.237,45.237,0,0,0-5.984-2.754,43.24,43.24,0,0,0-41.251,5.679,45.139,45.139,0,0,0-5.018,4.269c-.57.533-.966.991-1.264,1.277A2.907,2.907,0,0,1,182.784,126.716Z" transform="translate(-182.783 -111.721)" fill="#263238"/></g><g transform="translate(48.813 34.73)"><path d="M176.312,133.843a2.635,2.635,0,0,1,.443.4l1.195,1.213c1.066,1.021,2.585,2.529,4.643,4.181a53.223,53.223,0,0,0,7.634,5.209,41.947,41.947,0,0,0,10.465,4.2,37.724,37.724,0,0,0,5.762.983,40.535,40.535,0,0,0,5.449.052c3.478-.2,6.6-.671,9.234-.929a51.464,51.464,0,0,1,6.268-.34c.741.011,1.317.044,1.706.085a2.574,2.574,0,0,1,.59.077c0,.052-.82-.006-2.3.035s-3.606.171-6.228.5c-2.623.3-5.739.809-9.246,1.04a39.872,39.872,0,0,1-5.519-.023,37.33,37.33,0,0,1-5.844-.986A41.337,41.337,0,0,1,190,145.256a50.805,50.805,0,0,1-7.634-5.34,53.47,53.47,0,0,1-4.556-4.321l-1.127-1.282A2.631,2.631,0,0,1,176.312,133.843Z" transform="translate(-176.311 -133.842)" fill="#263238"/></g><g transform="translate(48.68 38.796)"><path d="M176.176,138a2.1,2.1,0,0,1,.392.365l1.044,1.111.744.811c.281.288.607.58.944.906.687.638,1.426,1.415,2.357,2.143l1.423,1.186c.5.409,1.057.779,1.614,1.194,1.1.85,2.374,1.609,3.691,2.442a50.075,50.075,0,0,0,19.034,6.618c1.55.164,3.022.359,4.41.375.693.02,1.363.076,2.006.065l1.853-.047c1.182,0,2.242-.145,3.177-.219.467-.047.9-.073,1.3-.125l1.086-.174,1.508-.223a2.091,2.091,0,0,1,.535-.044,2.162,2.162,0,0,1-.513.144l-1.5.319-1.084.218c-.4.067-.836.108-1.3.168a31.984,31.984,0,0,1-3.195.3l-1.865.081c-.649.023-1.325-.025-2.025-.036-1.4,0-2.887-.178-4.455-.332a48.676,48.676,0,0,1-19.215-6.68c-1.324-.853-2.6-1.632-3.7-2.5-.555-.426-1.114-.808-1.61-1.228l-1.414-1.221a31.931,31.931,0,0,1-2.322-2.214c-.33-.338-.647-.641-.918-.941l-.716-.844c-.393-.475-.715-.865-.975-1.178A2.111,2.111,0,0,1,176.176,138Z" transform="translate(-176.175 -137.995)" fill="#263238"/></g><g transform="translate(20.575 22.242)"><path d="M159.193,192.217s.1-.3.3-.873l.368-1.055q.182-.648.411-1.468a33.5,33.5,0,0,0,.762-4.1,36.15,36.15,0,0,0,.164-5.521,46.377,46.377,0,0,0-3.05-14.008c-1.856-5.105-5-10.216-7.553-15.948a37.788,37.788,0,0,1-2.757-8.722,21.351,21.351,0,0,1,.128-8.5,16.224,16.224,0,0,1,3.467-6.849A11.767,11.767,0,0,1,157,121.505a10.926,10.926,0,0,1,5.51-.121,9.826,9.826,0,0,1,3.79,1.742,8.756,8.756,0,0,1,1.828,1.907c.311.521.465.8.465.8s-.178-.264-.5-.774a9.031,9.031,0,0,0-1.843-1.868,9.825,9.825,0,0,0-3.768-1.693,10.848,10.848,0,0,0-5.444.148,11.652,11.652,0,0,0-5.48,3.64,16.059,16.059,0,0,0-3.411,6.781,21.221,21.221,0,0,0-.115,8.421,37.746,37.746,0,0,0,2.747,8.674c2.542,5.712,5.687,10.835,7.542,15.964a46.167,46.167,0,0,1,3.018,14.068,35.861,35.861,0,0,1-.194,5.541,32.436,32.436,0,0,1-.8,4.11q-.239.818-.43,1.466l-.388,1.05C159.315,191.923,159.193,192.217,159.193,192.217Z" transform="translate(-147.471 -121.089)" fill="#263238"/></g><g transform="translate(55.008 30.851)"><path d="M235.869,136.431s-.185.048-.541.121l-1.56.312c-.678.14-1.508.3-2.481.429s-2.074.334-3.306.443c-1.229.137-2.575.279-4.028.349-1.449.118-3,.129-4.637.165a82.677,82.677,0,0,1-21.059-2.591c-1.577-.432-3.081-.82-4.46-1.286-1.392-.419-2.664-.883-3.823-1.314-1.169-.4-2.191-.861-3.1-1.231s-1.68-.718-2.3-1.018l-1.438-.68c-.327-.158-.494-.25-.494-.25s.179.068.512.212l1.453.646c.628.288,1.4.631,2.315.984s1.936.807,3.1,1.2c1.16.421,2.433.876,3.824,1.289,1.378.457,2.881.838,4.455,1.264a84.484,84.484,0,0,0,21.012,2.585c1.63-.03,3.181-.035,4.628-.146,1.45-.063,2.794-.2,4.022-.323,1.231-.1,2.332-.284,3.3-.412s1.8-.266,2.483-.395l1.567-.274C235.678,136.453,235.869,136.431,235.869,136.431Z" transform="translate(-182.638 -129.881)" fill="#263238"/></g></g><g transform="translate(11.581 121.038)"><path d="M155.863,339.995c-.5,2.745-2.654,4.194-4.231,5.385a25.835,25.835,0,0,1-14.619,5.176,3.1,3.1,0,0,1-1.853-.351c-1.136-.763-.889-2.5-.37-3.763s1.176-2.74.483-3.919a11.608,11.608,0,0,1-12.086,1.47,1.487,1.487,0,0,1-.2-2.562c5.5-3.914,9.247-11.321,10.218-18.013Z" transform="translate(-117.764 -224.107)" fill="#002609"/><g transform="translate(15.207 99.31)" opacity="0.2"><path d="M154.978,338.636a142.854,142.854,0,0,0-21.549-15.219c-.307,2.942-.539,6.359.872,8.959,1.348,2.483,3.965,3.968,6.493,5.23,4.233,2.113,9.027,4,13.588,2.751.539-.149,1.183-.521,1.082-1.072A1.2,1.2,0,0,0,154.978,338.636Z" transform="translate(-133.197 -323.417)"/></g><path d="M129.527,231.4c12.882-4.628,18.306-5.237,30.813-7.985,1.043-.229,8.249-1.635,9.29-1.4,2.409.551,3.965,5.946,3.63,8.4s-1.763,4.581-2.949,6.75a38.435,38.435,0,0,0-2.367,31.138c1.5,4.129,3.714,7.985,5.008,12.182s3.377,7.769.456,11.261c-11.337-3.728-25.369-9.319-36.708-13.048,1.087-4.008.123-4.8-3.011-7.528s-6.965-4.583-9.964-7.455a19.7,19.7,0,0,1,5.8-32.314" transform="translate(-117.666 -221.99)" fill="#002609"/><g transform="translate(14.426 4.545)" opacity="0.2"><path d="M132.4,230.595c4.457,5.463,12.889,9.351,19.922,9.849a28.438,28.438,0,0,0,20.3-6.9,6.05,6.05,0,0,0,.819-2.087c-.163-.492-1.683-.118-2.174-.282a102.726,102.726,0,0,0-20.89-4.508c-6.219-.514-17.974,4.172-17.974,3.922" transform="translate(-132.4 -226.633)"/></g><g transform="translate(20.027 7.84)"><path d="M154.8,283.756a21.642,21.642,0,0,0,.178-2.417,14.271,14.271,0,0,0-1.791-6.275,23.308,23.308,0,0,0-2.524-3.781c-1.035-1.273-2.236-2.557-3.516-3.9s-2.631-2.759-3.9-4.35a22.943,22.943,0,0,1-4.942-17.342,22.572,22.572,0,0,1,7.822-14.268,16.789,16.789,0,0,1,1.449-1.092,3.029,3.029,0,0,1,.54-.329c.029.041-.691.531-1.859,1.571a23.465,23.465,0,0,0-4.232,5.046,22.386,22.386,0,0,0-3.255,9.13,22.758,22.758,0,0,0,1.685,11.691c1.639,3.941,4.507,6.928,7.034,9.621,1.271,1.353,2.47,2.658,3.5,3.96a23.024,23.024,0,0,1,2.514,3.88,13.953,13.953,0,0,1,1.669,6.44,9.6,9.6,0,0,1-.2,1.809A2.9,2.9,0,0,1,154.8,283.756Z" transform="translate(-138.12 -229.998)" fill="#263238"/></g><g transform="translate(30.541 8.449)"><path d="M164.053,287.645s.046-.218.154-.627a5.551,5.551,0,0,0,.164-.762,8.294,8.294,0,0,0,.145-1.053,15.179,15.179,0,0,0-.987-6.643,25.034,25.034,0,0,0-2.022-4.213,44.829,44.829,0,0,0-3.086-4.4c-2.3-3-5.128-6.14-7.134-10.073a24.163,24.163,0,0,1-2.032-6.071,25.6,25.6,0,0,1-.364-5.952,26.371,26.371,0,0,1,2.482-9.741,24.509,24.509,0,0,1,3.691-5.7,17.768,17.768,0,0,1,1.271-1.344c.3-.3.463-.448.463-.448s-.145.169-.435.478c-.274.32-.749.729-1.239,1.366a25.076,25.076,0,0,0-3.621,5.71,26.413,26.413,0,0,0-2.425,9.69,25.475,25.475,0,0,0,.373,5.905,24.035,24.035,0,0,0,2.017,6.015c1.989,3.9,4.8,7.038,7.1,10.05a44.534,44.534,0,0,1,3.084,4.428,24.972,24.972,0,0,1,2.012,4.25,15,15,0,0,1,.929,6.7,7.773,7.773,0,0,1-.164,1.056,5.24,5.24,0,0,1-.184.761C164.126,287.435,164.053,287.645,164.053,287.645Z" transform="translate(-148.858 -230.619)" fill="#263238"/></g></g></g><g transform="translate(0 4.883)"><path d="M240.6,193.733c5.282,5.594,4.4,13.3,1.745,18.731-4.008,8.186-2.839,10.7-5.37,14.936-2.421,4.055-.552,3.755,1.077,8.188s4.637,8.22,7.858,11.675a93.6,93.6,0,0,0,12.8,11.431c2.521,1.865,5.56,3.689,8.606,2.94,2.51-.617,4.333-2.913,5.111-5.378a22.789,22.789,0,0,0,.605-7.692q-.72-20.425-1.438-40.85" transform="translate(-93.204 -105.246)" fill="#263238"/><g transform="translate(158.467 249.419)"><path d="M263.489,470.443H378.847c-1.279-3.515-5.785-53.44-33.47-69.448,0,0-10.118,3.641-32.5-7.419-26-12.848-57.406-34.074-57.406-34.074l-3.466,41.413Z" transform="translate(-252.009 -358.123)" fill="#47b462"/><g transform="translate(3.153)" opacity="0.2"><path d="M338.2,400.3a24.64,24.64,0,0,0-5.2-4.537c-11.509-8.158-24.013-14.79-36.479-21.4-11.491-6.092-23.088-12.226-35.593-15.8a6.9,6.9,0,0,0-3.732-.326,2.494,2.494,0,0,0-1.9,2.834c9.271,8.946,18.787,17.637,29.842,24.255s23.386,11.38,36.217,12.548c2.182.2,4.831.607,5.625,2.651.44,1.131.119,2.4.174,3.611s.821,2.627,2.032,2.553c1.414-.085,1.846-1.943,1.864-3.358s.38-3.268,1.787-3.431a2.982,2.982,0,0,1,2.272,1.25c1.762,1.847,8.088,10.444,9.849,12.29C345.172,411.145,339.64,402.11,338.2,400.3Z" transform="translate(-255.229 -358.094)"/></g><g transform="translate(86.107 43.353)"><path d="M346.035,425.987c-.1-.03.4-1.4.727-3.688a23.1,23.1,0,0,0,.2-4.05A23.388,23.388,0,0,0,344.5,408.7a23.082,23.082,0,0,0-2.129-3.451c-1.391-1.852-2.489-2.8-2.418-2.88a3.95,3.95,0,0,1,.8.633,8.458,8.458,0,0,1,.858.833,14.047,14.047,0,0,1,1.047,1.192,20.855,20.855,0,0,1,2.262,3.458,22.238,22.238,0,0,1,2.51,9.744,20.933,20.933,0,0,1-.309,4.12,14.288,14.288,0,0,1-.341,1.549,8.4,8.4,0,0,1-.35,1.144A3.859,3.859,0,0,1,346.035,425.987Z" transform="translate(-339.951 -402.371)" fill="#263238"/></g><g transform="translate(78.578 39.767)"><path d="M332.27,413.451c-.074-.048.4-.781.925-2.061a15.291,15.291,0,0,0,.4-10.556c-.431-1.316-.845-2.082-.768-2.125a6.156,6.156,0,0,1,1.107,2,13.7,13.7,0,0,1-.407,10.824A6.142,6.142,0,0,1,332.27,413.451Z" transform="translate(-332.262 -398.708)" fill="#263238"/></g><g transform="translate(2.115 17.299)"><path d="M301.049,386.184a66.722,66.722,0,0,1-7.142.431,75.757,75.757,0,0,1-7.762-.3,73.484,73.484,0,0,1-18.532-4.12,75.94,75.94,0,0,1-7.158-3.015,66.86,66.86,0,0,1-6.286-3.416s.157.072.443.226l1.247.683c1.074.609,2.665,1.428,4.658,2.376s4.415,1.979,7.16,2.968a75.2,75.2,0,0,0,18.486,4.11c2.906.267,5.536.359,7.743.345s3.995-.083,5.226-.179l1.42-.09C300.877,386.183,301.049,386.184,301.049,386.184Z" transform="translate(-254.169 -375.762)" fill="#fafafa"/></g><g transform="translate(0.46 41.273)"><path d="M331.769,410.186s-.273.093-.8.251l-2.3.681c-1,.3-2.224.664-3.674.974s-3.075.778-4.922,1.058c-1.837.327-3.846.707-6.032.922-1.091.113-2.213.305-3.381.363l-3.6.232a99.715,99.715,0,0,1-16.025-.642,101.008,101.008,0,0,1-15.679-3.4l-3.428-1.118c-1.116-.35-2.157-.809-3.186-1.189-2.065-.749-3.92-1.61-5.622-2.374-1.721-.725-3.189-1.566-4.518-2.222s-2.433-1.3-3.332-1.829l-2.074-1.211c-.473-.279-.716-.435-.716-.435s.258.131.737.4l2.091,1.178c.9.519,2.01,1.153,3.346,1.8s2.8,1.476,4.525,2.191c1.7.755,3.559,1.607,5.623,2.348,1.028.375,2.069.83,3.183,1.177l3.425,1.108a102.216,102.216,0,0,0,15.649,3.379,100.751,100.751,0,0,0,15.992.656l3.591-.222c1.166-.055,2.286-.244,3.376-.353,2.183-.209,4.19-.58,6.027-.9,1.845-.271,3.473-.725,4.921-1.029s2.677-.65,3.68-.939l2.313-.644C331.488,410.253,331.769,410.186,331.769,410.186Z" transform="translate(-252.479 -400.247)" fill="#fafafa"/></g><g transform="translate(81.081 53.475)"><path d="M345.634,412.711a1.918,1.918,0,0,1-.366.253c-.242.154-.6.355-1.062.584a17.28,17.28,0,0,1-7.738,1.784c-.511,0-.925-.027-1.21-.06a1.834,1.834,0,0,1-.44-.068c0-.035.633.01,1.649-.017a19.649,19.649,0,0,0,7.677-1.77C345.07,413,345.617,412.681,345.634,412.711Z" transform="translate(-334.818 -412.709)" fill="#fafafa"/></g><g transform="translate(93.927 51.821)"><path d="M357.771,411.02a2.252,2.252,0,0,1-.282.392c-.19.246-.483.586-.861.994a22.156,22.156,0,0,1-7.013,5.033c-.507.227-.923.4-1.217.5a2.241,2.241,0,0,1-.461.142,2.1,2.1,0,0,1,.432-.215c.283-.124.689-.311,1.185-.554a25.555,25.555,0,0,0,6.97-5c.389-.393.7-.717.9-.946A2.173,2.173,0,0,1,357.771,411.02Z" transform="translate(-347.938 -411.019)" fill="#fafafa"/></g><g transform="translate(5.168 66.969)"><path d="M366.522,426.49s-.3.255-.9.723l-1.1.865a18.161,18.161,0,0,1-1.537,1.129,53.431,53.431,0,0,1-10.661,5.8,73,73,0,0,1-17.41,4.553c-3.364.456-6.914.793-10.6.984-3.689.169-7.513.229-11.428.183a144.189,144.189,0,0,1-21.968-2.077c-6.7-1.124-12.654-2.506-17.628-3.762-9.943-2.543-16-4.43-16-4.43s.385.1,1.113.3l3.182.884c2.765.767,6.768,1.867,11.745,3.109s10.934,2.6,17.624,3.716a145.355,145.355,0,0,0,21.939,2.059c3.911.045,7.731-.013,11.416-.179,3.684-.188,7.227-.52,10.585-.97a73.42,73.42,0,0,0,17.382-4.5,54.363,54.363,0,0,0,10.671-5.732,18.513,18.513,0,0,0,1.546-1.111l1.109-.849C366.2,426.723,366.522,426.49,366.522,426.49Z" transform="translate(-257.287 -426.49)" fill="#fafafa"/></g><g transform="translate(8.602 95.288)"><path d="M373.322,455.413s-.374.145-1.094.4l-3.153,1.121-2.28.806c-.839.277-1.763.54-2.749.844-1.98.583-4.211,1.329-6.742,1.921l-3.954,1c-1.377.342-2.83.6-4.323.923-2.981.678-6.214,1.151-9.6,1.7a164.773,164.773,0,0,1-44.581.392c-3.4-.491-6.64-.908-9.634-1.532-1.5-.3-2.957-.53-4.339-.848l-3.97-.933c-2.542-.548-4.786-1.254-6.776-1.8-.991-.286-1.92-.533-2.764-.8l-2.293-.766-3.171-1.064c-.725-.246-1.1-.385-1.1-.385s.386.113,1.114.346l3.182,1.028,2.3.748c.845.257,1.774.5,2.766.778,1.992.538,4.237,1.234,6.778,1.772l3.969.919c1.383.313,2.84.543,4.338.835,2.991.617,6.228,1.026,9.626,1.513a166.316,166.316,0,0,0,44.53-.392c3.389-.546,6.618-1.012,9.6-1.682,1.492-.317,2.945-.574,4.322-.911l3.953-.989c2.531-.584,4.763-1.32,6.745-1.892.987-.3,1.912-.555,2.752-.827l2.285-.788,3.164-1.084C372.938,455.532,373.322,455.413,373.322,455.413Z" transform="translate(-260.794 -455.413)" fill="#fafafa"/></g></g><path d="M259.957,251.109s21.707,17.4,32.913,42.558c9.018,20.244,69.51,48.285,74.243,70.183,5.876,27.177-18.44,37.258-31.368,35.3-30.4-4.6-99.179-53.208-99.179-53.208Z" transform="translate(-93.22 -106.443)" fill="#263238"/><g transform="translate(143.345 239.5)"><path d="M279.189,375.507a7.52,7.52,0,0,1-1.765-.928c-1.106-.656-2.689-1.631-4.634-2.851-3.89-2.442-9.23-5.867-15.105-9.687s-11.175-7.31-15-9.859l-4.509-3.041-1.211-.85a1.969,1.969,0,0,1-.4-.325,2,2,0,0,1,.459.24l1.264.769c1.15.727,2.7,1.709,4.6,2.906l15.077,9.734Z" transform="translate(-236.565 -347.964)" fill="#455a64"/></g><g transform="translate(140.413)"><path d="M249.79,121.611c-8.466,5.387-11.845,16.674-10.23,23.345.814,3.362,2.34,6.745,1.673,10.14-.576,2.933-2.685,5.279-4.262,7.818a23.558,23.558,0,0,0,29.441,34.026" transform="translate(-233.57 -103.741)" fill="#263238"/><g transform="translate(6.287)"><path d="M244.914,165.282c-20.592-45.292,28.391-68.045,55.118-60.5,25.119,7.095,35.832,19.6,39.966,36.4s3.936,35.011-2.651,51.018c-3.248,7.893-9.1,15.912-17.574,16.9" transform="translate(-239.991 -103.36)" fill="#263238"/><g transform="translate(4.732 15.066)"><path d="M268.883,254.758c-.355-21.64-.348-29.763-.355-29.639,0,0-18.6-3.088-22.454-27.357-1.917-12.07-1.31-31.858-.292-48.033.918-14.56,10.564-32.423,25.072-30.889l45.3,11.45a8.535,8.535,0,0,1,7.637,8.658h0l-4.305,97.218" transform="translate(-244.824 -118.748)" fill="#ffbe9d"/><g transform="translate(4.793 43.917)"><path d="M249.764,166.674c.372.418,2.787-1.247,6.134-1.127,3.345.072,5.744,1.876,6.121,1.478.185-.175-.184-.921-1.228-1.736a8.541,8.541,0,0,0-4.883-1.685,8.2,8.2,0,0,0-4.9,1.4C249.953,165.764,249.58,166.486,249.764,166.674Z" transform="translate(-249.719 -163.601)" fill="#263238"/></g><g transform="translate(36.418 44.997)"><path d="M282.067,168c.389.4,2.742-1.351,6.088-1.357,3.345-.055,5.811,1.658,6.172,1.245.177-.182-.215-.913-1.292-1.687a8.542,8.542,0,0,0-4.944-1.5,8.206,8.206,0,0,0-4.843,1.587C282.225,167.086,281.877,167.822,282.067,168Z" transform="translate(-282.017 -164.704)" fill="#263238"/></g><g transform="translate(17.484 38.832)"><path d="M271.214,186.313c.016-.19-2.066-.55-5.44-.982-.855-.088-1.664-.258-1.809-.841a4.355,4.355,0,0,1,.572-2.535q1.206-3.1,2.529-6.512c3.512-9.272,6.054-16.9,5.68-17.034s-3.526,7.265-7.038,16.537q-1.268,3.429-2.422,6.551a4.94,4.94,0,0,0-.444,3.356,2.145,2.145,0,0,0,1.406,1.25,5.793,5.793,0,0,0,1.453.2C269.1,186.489,271.2,186.5,271.214,186.313Z" transform="translate(-262.68 -158.407)" fill="#263238"/></g><g transform="translate(23.704 97.701)"><path d="M269.033,227.2a61.739,61.739,0,0,0,32.5-8.67s-8.212,16.884-32.5,14.613Z" transform="translate(-269.033 -218.531)" fill="#eb996e"/></g><g transform="translate(27.1 72.534)"><path d="M272.835,195.1a6.033,6.033,0,0,1,5.411-2.241,5.507,5.507,0,0,1,3.8,2.041,3.492,3.492,0,0,1,.265,3.992c-.9,1.272-2.792,1.565-4.391,1.11a12.692,12.692,0,0,1-4.281-2.555,3.719,3.719,0,0,1-.956-.991,1.118,1.118,0,0,1,0-1.246" transform="translate(-272.501 -192.827)" fill="#eb996e"/></g><g transform="translate(25.199 69.054)"><path d="M281.235,189.274c-.544-.031-.551,3.6-3.663,6.184s-6.981,2.181-7.01,2.689c-.051.228.863.706,2.5.75a9.05,9.05,0,0,0,5.852-2.039,7.883,7.883,0,0,0,2.839-5.185C281.889,190.154,281.483,189.253,281.235,189.274Z" transform="translate(-270.56 -189.274)" fill="#263238"/></g><g transform="translate(36.649 33.525)"><path d="M282.271,155.5c.33.91,3.675.479,7.6.952,3.94.4,7.108,1.545,7.629.728.233-.391-.319-1.247-1.6-2.129a13.32,13.32,0,0,0-11.606-1.281C282.855,154.35,282.129,155.066,282.271,155.5Z" transform="translate(-282.253 -152.987)" fill="#263238"/></g><g transform="translate(6.396 28.112)"><path d="M251.442,150.929c.589.76,2.9-.029,5.671-.067,2.773-.134,5.124.511,5.664-.285.237-.386-.133-1.148-1.159-1.868a8.211,8.211,0,0,0-9.133.283C251.5,149.774,251.183,150.557,251.442,150.929Z" transform="translate(-251.356 -147.459)" fill="#263238"/></g></g></g><g transform="translate(84.462 65.87)"><path d="M321.193,171.831c.354-.171,12.99-5.759,13.138,8.77s-14.47,11.681-14.5,11.265S321.193,171.831,321.193,171.831Z" transform="translate(-319.831 -170.633)" fill="#ffbe9d"/><g transform="translate(4.369 4.159)"><path d="M324.307,186.4c.064-.047.255.174.685.366a2.53,2.53,0,0,0,1.892.02c1.529-.579,2.8-3.029,2.841-5.649a8.352,8.352,0,0,0-.746-3.617,2.922,2.922,0,0,0-1.924-1.923,1.288,1.288,0,0,0-1.486.709c-.191.408-.095.7-.171.723-.041.037-.315-.24-.2-.841a1.613,1.613,0,0,1,.562-.916,1.907,1.907,0,0,1,1.4-.384,3.557,3.557,0,0,1,2.667,2.226,8.592,8.592,0,0,1,.918,4.041c-.064,2.929-1.534,5.684-3.629,6.312a2.712,2.712,0,0,1-2.319-.361C324.337,186.755,324.257,186.431,324.307,186.4Z" transform="translate(-324.294 -174.881)" fill="#eb996e"/></g></g><path d="M266.268,111.371c-8.084,4.177-11.412,20.716-8.067,29.177s11.768,14.2,20.657,16.143,18.192.577,26.958-1.861c.61,5.9,4.144,11.946,9.863,13.5,7.572,2.059,15.2-4.875,16.889-12.539s-.84-15.557-3.335-23" transform="translate(-234.057 -103.527)" fill="#263238"/><g transform="translate(70.312 50.056)"><path d="M331.387,164.993c.035.045-.362.423-1.12,1.059a39.325,39.325,0,0,1-3.352,2.528,20.5,20.5,0,0,1-5.649,2.734,12.23,12.23,0,0,1-7.711-.114,11.963,11.963,0,0,1-5.836-5.045,16.172,16.172,0,0,1-2.091-5.933,21.489,21.489,0,0,1-.228-4.208,4.771,4.771,0,0,1,.189-1.532c.16,0-.014,2.209.623,5.637a16.537,16.537,0,0,0,2.164,5.627,11.476,11.476,0,0,0,5.477,4.669,11.76,11.76,0,0,0,7.205.153,21.537,21.537,0,0,0,5.538-2.49C329.564,166.223,331.3,164.874,331.387,164.993Z" transform="translate(-305.38 -154.483)" fill="#263238"/></g><path d="M320.989,237.551c2.56-3.863,8.9-7,13.525-7.369s9.277-.138,13.857-.852C363.6,226.959,370.3,216.938,368.5,202.3c-.718-5.843-3.012-9.794-12.324-21.284-7.961-9.824-12.043-21.68-13.328-33.556l-6.43,18.564,2.595,21.328-6.182,12.706-10.32,4.293Z" transform="translate(-235.394 -104.28)" fill="#263238"/><path d="M366.848,237.242a41.776,41.776,0,0,0-5.954-10.079,50.34,50.34,0,0,1-6.2-9.944l-14.676,9.048a13.508,13.508,0,0,0-.715-6.826c-1.47-3.91-4.321-7.115-7.112-10.222l-10.011-16.393c-4.041,10.969-8.055,14.4-16.177,19.974s-16.38,9.057-23.08,20.887c-1.853,3.272-5.736,20.335-3.538,22.33,0,0,19.175-11.687,22.582-12.855,8.364-2.868,17.164-4.115,25.519-6.872a38.8,38.8,0,0,1,20.878,11.024c2.638,2.711,5.186,6,8.9,6.711,3.847.734,7.829-1.816,9.523-5.347S368.19,240.921,366.848,237.242Z" transform="translate(-234.512 -105.227)" fill="#263238"/><g transform="translate(30.59 14.591)"><path d="M360.941,225.873c-.032.018-.258-.545-.919-1.468a12.772,12.772,0,0,0-3.68-3.27,34.94,34.94,0,0,0-7.2-3.117,48.749,48.749,0,0,1-4.6-1.805,16.02,16.02,0,0,1-4.609-3.093,11.919,11.919,0,0,1-3.035-5.292,18.483,18.483,0,0,1-.459-6.606c.386-4.614,2.4-9.151,3.928-14a28.625,28.625,0,0,0,1.47-7.625,15.765,15.765,0,0,0-1.744-7.783,10.3,10.3,0,0,0-2.593-3.152,9.6,9.6,0,0,0-3.741-1.778c-1.374-.354-2.807-.551-4.246-.862a10.521,10.521,0,0,1-4.143-1.687,9.015,9.015,0,0,1-2.723-3.553c-.639-1.335-1.112-2.708-1.7-4a12.508,12.508,0,0,0-5.535-6.02,21.582,21.582,0,0,0-7.681-2.423,53.009,53.009,0,0,0-7.811-.278c-2.555.048-5.058.118-7.492-.027a29.336,29.336,0,0,1-18.02-7.374,28.3,28.3,0,0,1-6.394-8.258,29.6,29.6,0,0,1-2.632-7.442,26.639,26.639,0,0,1-.573-4.957c-.022-1.142.032-1.739.032-1.739s.018.15.026.442,0,.726.044,1.293a28.653,28.653,0,0,0,.664,4.919,29.926,29.926,0,0,0,2.691,7.352,28.189,28.189,0,0,0,6.379,8.12,29.029,29.029,0,0,0,17.808,7.2c2.408.137,4.9.06,7.457,0a53.224,53.224,0,0,1,7.883.265,22.038,22.038,0,0,1,7.862,2.47,14.074,14.074,0,0,1,3.38,2.611,12.8,12.8,0,0,1,2.372,3.636c.6,1.323,1.074,2.7,1.7,3.993a8.533,8.533,0,0,0,2.569,3.364,10.032,10.032,0,0,0,3.947,1.6c1.41.306,2.852.5,4.265.869a10.116,10.116,0,0,1,3.926,1.873,10.79,10.79,0,0,1,2.718,3.309,16.221,16.221,0,0,1,1.792,8.033,29.033,29.033,0,0,1-1.508,7.754c-1.552,4.881-3.562,9.369-3.957,13.9a18.12,18.12,0,0,0,.419,6.46,11.557,11.557,0,0,0,2.911,5.142,15.741,15.741,0,0,0,4.492,3.055c1.564.747,3.109,1.306,4.552,1.829a34.328,34.328,0,0,1,7.207,3.218,12.466,12.466,0,0,1,3.659,3.378A7.3,7.3,0,0,1,360.941,225.873Z" transform="translate(-264.811 -118.262)" fill="#455a64"/></g><g transform="translate(40.323 6.587)"><path d="M355.574,215.308a2.189,2.189,0,0,1,.32-.232c.21-.156.552-.341.948-.657a14.011,14.011,0,0,0,3.034-3.195,17.337,17.337,0,0,0,2.675-6.411,20.832,20.832,0,0,0-.213-9.177,33.777,33.777,0,0,0-4.607-10.2,112.434,112.434,0,0,0-7.823-10.312,70.936,70.936,0,0,1-8.216-11.782c-2.393-4.443-3.323-9.616-5.3-14.454a20.028,20.028,0,0,0-4.114-6.471,22.317,22.317,0,0,0-6.1-4.309c-4.439-2.192-9.194-3.106-13.661-3.993a96.668,96.668,0,0,1-12.621-3.1,53.548,53.548,0,0,1-10.356-4.588,36.376,36.376,0,0,1-12.009-11.018,28.072,28.072,0,0,1-2.188-3.884c-.217-.461-.352-.827-.453-1.067a2.32,2.32,0,0,1-.134-.371,2.285,2.285,0,0,1,.182.351c.117.233.266.591.5,1.044a30.991,30.991,0,0,0,2.259,3.817,36.786,36.786,0,0,0,12.027,10.817,53.747,53.747,0,0,0,10.306,4.5,97.465,97.465,0,0,0,12.58,3.038c4.47.876,9.268,1.782,13.792,4.007a22.765,22.765,0,0,1,6.238,4.4,20.514,20.514,0,0,1,4.222,6.629c2.009,4.92,2.927,10.053,5.278,14.422a71.018,71.018,0,0,0,8.138,11.715,111.022,111.022,0,0,1,7.814,10.381,33.956,33.956,0,0,1,4.6,10.341,21.029,21.029,0,0,1,.142,9.321,17.332,17.332,0,0,1-2.792,6.466A13.494,13.494,0,0,1,356.9,214.5,12.366,12.366,0,0,1,355.574,215.308Z" transform="translate(-274.752 -110.088)" fill="#455a64"/></g><g transform="translate(50.715 85.398)"><path d="M285.494,244.66a4.277,4.277,0,0,1-.084-.764,17.649,17.649,0,0,1-.023-2.206,24.341,24.341,0,0,1,1.75-7.906,30.906,30.906,0,0,1,6.551-10.055,46.78,46.78,0,0,1,11.853-8.706c4.616-2.486,9.344-4.1,13.3-6.246a28.823,28.823,0,0,0,5.278-3.53,17.8,17.8,0,0,0,3.569-4.189,13.526,13.526,0,0,0,2.184-7.578,16.555,16.555,0,0,0-.487-2.9,4.37,4.37,0,0,1,.274.72,9.633,9.633,0,0,1,.41,2.172,13.427,13.427,0,0,1-2.073,7.776,17.96,17.96,0,0,1-3.6,4.321,28.861,28.861,0,0,1-5.332,3.625c-3.988,2.187-8.708,3.818-13.279,6.282a47.113,47.113,0,0,0-11.754,8.582,31.057,31.057,0,0,0-6.555,9.863,25.344,25.344,0,0,0-1.887,7.784c-.068.948-.087,1.689-.072,2.19A4.333,4.333,0,0,1,285.494,244.66Z" transform="translate(-285.365 -190.578)" fill="#455a64"/></g><g transform="translate(45.153 4.706)"><path d="M332.326,128.4c-.058.017-.227-.8-.856-2.142a15.111,15.111,0,0,0-3.833-4.89,22.055,22.055,0,0,0-8.141-4.315,59.97,59.97,0,0,0-11.258-1.859,93.186,93.186,0,0,1-20.478-3.946c-2.55-.8-4.574-1.572-5.957-2.135-.693-.277-1.224-.513-1.582-.674a2.668,2.668,0,0,1-.537-.271,2.667,2.667,0,0,1,.575.175l1.616.584c1.4.505,3.438,1.218,5.991,1.976a100.057,100.057,0,0,0,20.422,3.783,58.194,58.194,0,0,1,11.343,1.917,21.977,21.977,0,0,1,8.243,4.493,14.651,14.651,0,0,1,3.776,5.079,10.217,10.217,0,0,1,.558,1.635A2.6,2.6,0,0,1,332.326,128.4Z" transform="translate(-279.685 -108.166)" fill="#455a64"/></g></g><g transform="translate(0 124.737)"><g transform="translate(0 9.128)"><path d="M303.742,240.078,196.756,298.512a5.966,5.966,0,0,1-4.86.386l-73.444-26.107a79.8,79.8,0,0,1-1.895-9.482c-.328-4.11,1.375-10.909,1.375-10.909-5.107.552-5.909,6.948-5.909,6.948s-11.105-.585-13.444,2.338a20.366,20.366,0,0,0-3,6.32,5.8,5.8,0,0,0,.013,3.334c.52,1.775,1.04,4.763-.519,6.711-2.338,2.922-5.845,6.429-4.676,11.1s5.93,13.411,13.691,13.35c5.945-.047,35.113,26.217,61.355,42.293a52.891,52.891,0,0,0,35.464,7.158c22.57-3.375,78.747-27.471,94.569-35.178C318.271,305.673,303.742,240.078,303.742,240.078Z" transform="translate(-90.165 -240.078)" fill="#ffbe9d"/><g transform="translate(16.943 35.731)"><path d="M115.489,276.573c.062.057-.69.9-1.76,2.357a32.538,32.538,0,0,0-5.667,12.808c-.362,1.772-.478,2.893-.562,2.886a2.441,2.441,0,0,1-.02-.8,18.821,18.821,0,0,1,.226-2.155,27.714,27.714,0,0,1,5.737-12.963,18.631,18.631,0,0,1,1.442-1.617C115.251,276.735,115.464,276.548,115.489,276.573Z" transform="translate(-107.469 -276.571)" fill="#eb996e"/></g></g><g transform="translate(109.07)"><path d="M281.346,248.671s28.607-17.431,40.387-17.882c20.231-.774,35.877,11.616,38.012,34.031,1.423,14.94-8.1,55.732-8.444,73.523,1.753,1.625,2.107,3.8,1.475,6.372l-18.569-14.628c-4.868-2.819-15.085-10.943-17.213-12.458,0,0-16.867,5.382-33.588,10.556-12.661,3.918-52.946,18.978-60.641,21.7l-21.205-53.772Z" transform="translate(-201.559 -230.755)" fill="#47b462"/><g transform="translate(22.274 84.295)"><path d="M334.681,318.34a10.961,10.961,0,0,0-4.34-1.235c-2.932-.258-7.151.629-12.168,2.155-5.04,1.506-10.989,3.483-17.58,5.712s-13.824,4.73-21.408,7.374l-38.8,13.693-11.752,4.167-3.2,1.119-.836.281a1.309,1.309,0,0,1-.291.078,1.334,1.334,0,0,1,.272-.127l.82-.328,3.168-1.209,11.7-4.321c9.891-3.611,23.58-8.536,38.753-13.834,7.585-2.645,14.821-5.138,21.426-7.338s12.566-4.15,17.629-5.613c1.258-.386,2.475-.7,3.632-.984,1.149-.309,2.249-.52,3.283-.7a20.635,20.635,0,0,1,5.371-.321,10.128,10.128,0,0,1,3.291.848A5.261,5.261,0,0,1,334.681,318.34Z" transform="translate(-224.308 -316.846)" fill="#263238"/></g><g transform="translate(145.163 96.876)"><path d="M349.846,329.7a57.712,57.712,0,0,0,1.957,5.547,57.589,57.589,0,0,0,2.98,5.073,16.51,16.51,0,0,1-4.937-10.62Z" transform="translate(-349.816 -329.696)" fill="#263238"/></g><g transform="translate(115.528 84.55)" opacity="0.3"><path d="M337.122,320.9a2.322,2.322,0,0,0-.674-2.324,4.465,4.465,0,0,0-2.133-1.155c-4.128-1.04-10.032.744-14.766,2.1h0c4.837,3.543,9.6,7.436,14.824,10.954l1.516.95a1.986,1.986,0,0,0,.577-1.557,15.379,15.379,0,0,0-1.177-3.318,3.942,3.942,0,0,1,0-3.407C335.8,322.311,336.8,321.816,337.122,320.9Z" transform="translate(-319.549 -317.107)"/></g><g transform="translate(17.788 54.964)"><path d="M244.316,343.317c-.051.022-5.6-12.592-12.388-28.172s-12.254-28.232-12.2-28.255,5.6,12.589,12.389,28.174S244.368,343.294,244.316,343.317Z" transform="translate(-219.726 -286.89)" fill="#fafafa"/></g><g transform="translate(40.074 41.532)"><path d="M269.643,333.42s-.1-.207-.285-.609c-.2-.449-.458-1.034-.779-1.761l-2.873-6.472c-2.44-5.459-5.893-12.962-9.733-21.238s-7.275-15.794-9.681-21.27c-1.205-2.737-2.167-4.957-2.814-6.5l-.745-1.776c-.168-.406-.247-.624-.247-.624s.1.207.285.608c.2.449.458,1.034.779,1.76l2.873,6.471c2.44,5.46,5.893,12.964,9.735,21.242s7.273,15.792,9.679,21.266c1.2,2.737,2.167,4.957,2.814,6.5.307.732.555,1.322.745,1.776C269.565,333.2,269.643,333.42,269.643,333.42Z" transform="translate(-242.487 -273.172)" fill="#fafafa"/></g><g transform="translate(61.241 28.944)"><path d="M295.217,325.441s-.113-.227-.308-.666q-.322-.728-.848-1.925l-3.126-7.076c-2.655-5.967-6.4-14.176-10.7-23.169s-8.331-17.068-11.3-22.884c-1.477-2.867-2.679-5.2-3.541-6.877-.4-.776-.722-1.4-.964-1.869-.218-.428-.324-.658-.324-.658s.13.217.36.639l1,1.851c.866,1.609,2.1,3.948,3.6,6.849,3.006,5.8,7.06,13.866,11.359,22.862s8.023,17.216,10.645,23.2c1.313,2.991,2.36,5.419,3.067,7.1l.813,1.94C295.13,325.2,295.217,325.441,295.217,325.441Z" transform="translate(-264.105 -260.316)" fill="#fafafa"/></g><g transform="translate(81.778 18.602)"><path d="M314.3,318.666c-.052.023-6.636-15.388-14.7-34.416s-14.569-34.476-14.517-34.5,6.634,15.385,14.7,34.418S314.351,318.645,314.3,318.666Z" transform="translate(-285.08 -249.753)" fill="#fafafa"/></g><g transform="translate(104.913 7.072)"><path d="M335.918,314.59s-.065-.279-.167-.813q-.165-.869-.442-2.339c-.183-1.017-.417-2.261-.725-3.7s-.616-3.078-1.044-4.876c-.8-3.609-1.868-7.878-3.178-12.585-1.34-4.7-2.937-9.828-4.813-15.144-1.9-5.311-3.9-10.3-5.819-14.792-1.951-4.48-3.813-8.469-5.471-11.77-.8-1.665-1.6-3.137-2.267-4.443s-1.269-2.419-1.767-3.324l-1.134-2.093c-.257-.48-.383-.736-.383-.736s2.342,3.931,5.679,10.533c1.676,3.3,3.553,7.281,5.515,11.76,1.935,4.49,3.939,9.482,5.839,14.8,1.878,5.322,3.471,10.458,4.8,15.163,1.3,4.713,2.36,8.988,3.138,12.6C335.255,310.062,335.918,314.59,335.918,314.59Z" transform="translate(-308.708 -237.978)" fill="#fafafa"/></g><g transform="translate(138.679 4.702)"><path d="M345.306,235.557s.081.258.217.753l.585,2.169c.53,1.879,1.161,4.632,1.874,8.047.66,3.425,1.406,7.519,1.877,12.11.3,2.289.424,4.71.619,7.212.095,2.51.219,5.107.17,7.771a100.985,100.985,0,0,1-3.617,26.956q-.361,1.256-.687,2.393-.385,1.112-.726,2.1c-.448,1.312-.843,2.438-1.242,3.33l-.869,2.073c-.2.473-.315.717-.315.717s.09-.256.278-.733l.831-2.086c.388-.895.771-2.024,1.208-3.338l.71-2.1.672-2.394a102.7,102.7,0,0,0,3.552-26.918c.049-2.659-.073-5.253-.167-7.758-.192-2.5-.311-4.917-.606-7.2-.459-4.586-1.191-8.677-1.831-12.1-.694-3.415-1.3-6.172-1.809-8.055-.229-.91-.411-1.634-.547-2.179C345.361,235.822,345.306,235.557,345.306,235.557Z" transform="translate(-343.193 -235.557)" fill="#fafafa"/></g><g transform="translate(129.229 92.685)"><path d="M355.446,325.416a16.027,16.027,0,0,1-2.652,2.2,21.287,21.287,0,0,1-7.661,3.164,21.515,21.515,0,0,1-8.29.082,15.129,15.129,0,0,1-3.3-.98.984.984,0,0,1,.233.058l.653.2a9.874,9.874,0,0,0,1.042.286,12.614,12.614,0,0,0,1.4.293,22.29,22.29,0,0,0,8.225-.14,22.036,22.036,0,0,0,7.622-3.084,19.278,19.278,0,0,0,2.014-1.5l.525-.438A1.1,1.1,0,0,1,355.446,325.416Z" transform="translate(-333.542 -325.416)" fill="#fafafa"/></g><g transform="translate(143.673 106.498)"><path d="M352.014,339.525a5.291,5.291,0,0,1-3.72,1.691,10.182,10.182,0,0,0,3.72-1.691Z" transform="translate(-348.294 -339.522)" fill="#fafafa"/></g><g transform="translate(132.689 56.893)"><path d="M360.943,288.86s-.015.146-.061.421c-.06.334-.129.73-.213,1.2l-.35,1.9c-.145.74-.405,1.561-.642,2.479a45.283,45.283,0,0,1-6.231,13.4,43.776,43.776,0,0,1-5.324,6.191,33.055,33.055,0,0,1-5.3,4.044,15.852,15.852,0,0,1-4.117,1.791,5,5,0,0,1-1.206.2c-.279.023-.424.025-.424.025s.145-.029.421-.067a5.366,5.366,0,0,0,1.19-.235,16.419,16.419,0,0,0,4.062-1.837,33.9,33.9,0,0,0,5.245-4.057,44.663,44.663,0,0,0,5.284-6.171,46.393,46.393,0,0,0,6.26-13.319c.246-.914.515-1.729.67-2.465q.217-1.072.384-1.892l.251-1.195C360.9,289,360.943,288.86,360.943,288.86Z" transform="translate(-337.076 -288.86)" fill="#fafafa"/></g></g></g><g transform="translate(26.799 84.799)"><path d="M146.046,189.968l75.033,21.208,36.76,26.907,8.842,18.162,1.011,14.958a3.564,3.564,0,0,1-6.711,1.676c-.948-1.79-1.7-4.523-2.005-8.647l-.989-6.6-5.454-8.18s.485,19.481.437,23.824c-.052,4.762-1.982,5.924-4.153,5.923-1.516,0-5.282,1.328-5.378-10.42-.15-18.4-3.061-19.68-3.061-19.68s-.568,17.225-1.432,24.571c-.592,5.035-7.5,4.048-7.814-.683-.3-4.5-.872-17.184-.872-17.184-.229-4.83-1.025-8.3-2.737-10.142,0,0-3.26,21.4-4.168,24.633-1.584,5.647-6.443,1.9-6.443-.758s-.758-24.254-.758-24.254l-13.643-11.369-63.287-6.443Z" transform="translate(-117.988 -189.966)" fill="#ffbe9d"/><g transform="translate(2.047 29.121)"><path d="M159.75,230.224a10.283,10.283,0,0,1-1.66-.05l-4.508-.3a134.9,134.9,0,0,1-14.836-1.643,53.4,53.4,0,0,1-7.959-2.128c-1.184-.454-2.311-.882-3.322-1.385-1.036-.449-1.945-.978-2.784-1.441-.854-.438-1.547-.969-2.193-1.368a17.425,17.425,0,0,1-1.582-1.14,10.029,10.029,0,0,1-1.279-1.058,10.539,10.539,0,0,1,1.4.9c.439.3.963.686,1.62,1.061s1.357.878,2.214,1.292c.843.438,1.752.944,2.785,1.372,1.008.481,2.129.889,3.3,1.328a56.892,56.892,0,0,0,7.9,2.069c5.708,1.045,10.976,1.4,14.771,1.784,1.9.181,3.437.333,4.5.463A10.262,10.262,0,0,1,159.75,230.224Z" transform="translate(-119.626 -219.707)" fill="#eb996e"/></g><g transform="translate(0 34.315)"><path d="M135.626,228a9.757,9.757,0,0,1-2.7.571,24.145,24.145,0,0,1-13.02-2.146,9.819,9.819,0,0,1-2.372-1.405c.042-.073.963.43,2.518,1.076a28.325,28.325,0,0,0,12.841,2.116C134.576,228.1,135.61,227.918,135.626,228Z" transform="translate(-117.535 -225.013)" fill="#eb996e"/></g><g transform="translate(84.508 38.291)"><path d="M217.085,246.044a21.561,21.561,0,0,1-2.675-1.979c-1.611-1.277-3.816-3.051-6.226-5.063a15.843,15.843,0,0,1-3.056-3.26,7.431,7.431,0,0,1-1.257-3.446,5.131,5.131,0,0,1,.331-2.451,1.935,1.935,0,0,1,.469-.773,6.283,6.283,0,0,0-.442,3.183,7.4,7.4,0,0,0,1.289,3.224,16.506,16.506,0,0,0,3,3.133c2.4,2,4.576,3.827,6.125,5.173A21.336,21.336,0,0,1,217.085,246.044Z" transform="translate(-203.844 -229.073)" fill="#eb996e"/></g><g transform="translate(112.951 44.641)"><path d="M232.894,235.565a2.772,2.772,0,0,1,.831.259c.522.2,1.27.506,2.17.948a15.8,15.8,0,0,1,2.994,1.88,8.993,8.993,0,0,1,2.654,3.449,12.362,12.362,0,0,1,.926,4.246,33.376,33.376,0,0,1-.037,3.517,25.482,25.482,0,0,1-.257,3.215,16.838,16.838,0,0,1-.1-3.227c-.024-1.963.173-4.795-1-7.547a8.829,8.829,0,0,0-2.488-3.293,17.428,17.428,0,0,0-2.859-1.921C233.988,236.149,232.86,235.64,232.894,235.565Z" transform="translate(-232.893 -235.558)" fill="#eb996e"/></g><g transform="translate(127.74 47.707)"><path d="M255,258.892a12.433,12.433,0,0,1-.3-3.516c-.013-1.089,0-2.385.025-3.822.007-1.434.1-3.022-.02-4.648a12.373,12.373,0,0,0-1.048-4.434,6.531,6.531,0,0,0-2.388-2.76,5.231,5.231,0,0,0-2.338-.825c-.593-.05-.929.006-.936-.04a2.043,2.043,0,0,1,.944-.158,4.972,4.972,0,0,1,2.517.715,6.7,6.7,0,0,1,2.623,2.861,12.276,12.276,0,0,1,1.134,4.6,46.336,46.336,0,0,1-.019,4.7c-.05,1.4-.1,2.682-.135,3.813-.033,1.085-.048,1.962-.048,2.567A4.581,4.581,0,0,1,255,258.892Z" transform="translate(-247.998 -238.69)" fill="#eb996e"/></g><g transform="translate(28.058)"><path d="M257.984,238.083a.876.876,0,0,1-.193-.114l-.541-.37-2.075-1.468-7.7-5.551-26.392-19.206.074.037c-4.876-1.456-10.128-2.979-15.56-4.516-16.416-4.626-31.334-8.624-42.076-11.717-5.375-1.531-9.709-2.827-12.7-3.732l-3.436-1.071-.89-.291a1.414,1.414,0,0,1-.3-.117,1.517,1.517,0,0,1,.312.066l.9.243,3.462.98,12.743,3.575c10.765,3,25.694,6.946,42.117,11.574,5.434,1.537,10.687,3.067,15.563,4.535l.04.012.034.025,26.285,19.351,7.62,5.666,2.027,1.534.517.4A.9.9,0,0,1,257.984,238.083Z" transform="translate(-146.191 -189.966)" fill="#eb996e"/></g></g></g></g></g></svg>