<svg xmlns="http://www.w3.org/2000/svg" width="144.167" height="53.668" viewBox="0 0 144.167 53.668"><g transform="translate(-57.452 207.196)"><path d="M29.672-39.459V-50.92c0-3.251-1.741-4.795-4.663-4.795a6.731,6.731,0,0,0-5.452,2.89c-.591-1.806-2.069-2.89-4.4-2.89a6.938,6.938,0,0,0-5.189,2.463v-2.069H5.8v15.862H9.967V-50.132A4.257,4.257,0,0,1,13.251-52c1.708,0,2.365,1.051,2.365,2.529v10.017h4.2V-50.165A4.211,4.211,0,0,1,23.1-52c1.708,0,2.365,1.051,2.365,2.529v10.017Zm12.841,0c6.864,0,11.626-4.335,11.626-10.936S49.376-61.364,42.513-61.364H33.875v21.905Zm0-4.105H38.539V-57.259h3.974c4.5,0,6.864,2.989,6.864,6.864A6.557,6.557,0,0,1,42.513-43.564Zm22.2,4.5a8.05,8.05,0,0,0,8.407-8.342,8.042,8.042,0,0,0-8.407-8.309,8.034,8.034,0,0,0-8.375,8.309A8.042,8.042,0,0,0,64.713-39.065Zm0-3.711c-2.594,0-4.039-2.135-4.039-4.631,0-2.463,1.445-4.6,4.039-4.6s4.072,2.135,4.072,4.6C68.785-44.911,67.308-42.776,64.713-42.776ZM83.6-39.065a7.311,7.311,0,0,0,6.273-2.89l-2.726-2.529a4,4,0,0,1-3.35,1.708c-2.529,0-4.3-1.872-4.3-4.631s1.773-4.6,4.3-4.6a3.847,3.847,0,0,1,3.35,1.708l2.726-2.562A7.381,7.381,0,0,0,83.6-55.715a8.046,8.046,0,0,0-8.407,8.309A8.054,8.054,0,0,0,83.6-39.065Z" transform="translate(111.75 -132.327)" fill="#414042"/><path d="M122.9-144.643h3.591v3.088h3.016v3.591h-3.016v2.8H122.9v-2.8h-2.8v-3.591h2.8Z" transform="translate(-40.284 -40.224)" fill="#ff632f"/><path d="M142.452-168.243c-.023-.018,15.17-11.287,15.413-29.855-.243-.121-.953-.479-7.964.583,0-.127-5.142-4.419-7.1-4.674-.042-.043,6.462-3.208,22.4-3.208.215.144,2.657,25.548-16.275,40.961C148.828-164.564,143.573-166.594,142.452-168.243Z" transform="translate(-54.658 -1.157)" fill="#9e9f9e"/><path d="M165.424-201.591c.023.018-15.17,11.287-15.413,29.855.243.121.953.479,7.964-.583,0,.127,5.142,4.419,7.1,4.674.042.042-6.462,3.208-22.4,3.208-.215-.144-2.657-25.548,16.275-40.961C159.047-205.269,164.3-203.24,165.424-201.591Z" transform="translate(-85 10.266)" fill="#9e9f9e"/><path d="M22.971,3.806c.023.018-15.17,11.287-15.413,29.855.243.121.953.479,7.964-.583,0,.127,5.142,4.419,7.1,4.674.042.042-6.462,3.208-22.4,3.208C0,40.817-2.442,15.413,16.49,0,16.6.128,21.851,2.157,22.971,3.806Z" transform="translate(99.254 -206.481) rotate(91)" fill="#47b462"/><path d="M22.971,3.806c.023.018-15.17,11.287-15.413,29.855.243.121.953.479,7.964-.583,0,.127,5.142,4.419,7.1,4.674.042.042-6.462,3.208-22.4,3.208C0,40.817-2.442,15.413,16.49,0,16.6.128,21.851,2.157,22.971,3.806Z" transform="matrix(0.017, -1, 1, 0.017, 68.607, -154.243)" fill="#47b462"/></g></svg>